<svg width="425" height="23" viewBox="0 0 425 23" fill="none" xmlns="http://www.w3.org/2000/svg">
<path d="M409.5 11.156C412.2 7.85604 414.7 3.85604 417.8 0.756039H425C420.1 2.85604 416.6 9.35604 412.8 13.956C412.267 14.4894 411.767 15.0227 411.3 15.556L410.5 16.356C406.1 20.656 401.2 22.256 394.4 22.256H352.3H134L0 17.956H394.4C401.1 17.956 405.2 16.356 409.5 11.156Z" fill="#D9D9D9"/>
<path d="M409.5 11.156C412.2 7.85604 414.7 3.85604 417.8 0.756039H425C420.1 2.85604 416.6 9.35604 412.8 13.956C412.267 14.4894 411.767 15.0227 411.3 15.556L410.5 16.356C406.1 20.656 401.2 22.256 394.4 22.256H352.3H134L0 17.956H394.4C401.1 17.956 405.2 16.356 409.5 11.156Z" fill="url(#paint0_linear_198_112)"/>
<defs>
<linearGradient id="paint0_linear_198_112" x1="424.908" y1="22.3612" x2="133.995" y2="22.3612" gradientUnits="userSpaceOnUse">
<stop stop-color="#9E0000"/>
<stop offset="1" stop-color="#FF1212"/>
</linearGradient>
</defs>
</svg>
