<svg width="48" height="49" viewBox="0 0 48 49" fill="none" xmlns="http://www.w3.org/2000/svg">
<circle cx="23.9771" cy="24.523" r="22.7529" fill="#FF1E2F" stroke="#3EBFFF" stroke-width="2.45977"/>
<path d="M31.7341 16.662C30.371 16.0266 28.8951 15.5654 27.3578 15.2989C27.3443 15.2984 27.3309 15.301 27.3185 15.3063C27.3061 15.3116 27.295 15.3196 27.286 15.3296C27.1015 15.6678 26.8863 16.1085 26.7428 16.4468C25.1122 16.2008 23.4539 16.2008 21.8233 16.4468C21.6798 16.0983 21.4646 15.6678 21.2698 15.3296C21.2596 15.3091 21.2288 15.2989 21.1981 15.2989C19.6607 15.5654 18.1951 16.0266 16.8217 16.662C16.8115 16.662 16.8012 16.6722 16.791 16.6825C14.0033 20.8539 13.2346 24.9125 13.6138 28.9301C13.6138 28.9506 13.624 28.9711 13.6445 28.9813C15.4894 30.3342 17.2625 31.1541 19.015 31.6973C19.0458 31.7076 19.0765 31.6973 19.0868 31.6768C19.4967 31.1131 19.8657 30.5187 20.1834 29.8935C20.2039 29.8525 20.1834 29.8115 20.1424 29.8013C19.5582 29.5758 19.0048 29.3093 18.4616 29.0018C18.4206 28.9813 18.4206 28.9199 18.4513 28.8891C18.5641 28.8071 18.6768 28.7149 18.7896 28.6329C18.8101 28.6124 18.8408 28.6124 18.8613 28.6226C22.387 30.2317 26.1894 30.2317 29.674 28.6226C29.6945 28.6124 29.7253 28.6124 29.7458 28.6329C29.8585 28.7251 29.9713 28.8071 30.084 28.8994C30.125 28.9301 30.125 28.9916 30.0738 29.0121C29.5408 29.3298 28.9771 29.586 28.3929 29.8115C28.3519 29.8218 28.3417 29.873 28.3519 29.9038C28.6799 30.529 29.0489 31.1234 29.4486 31.6871C29.4793 31.6973 29.5101 31.7076 29.5408 31.6973C31.3036 31.1541 33.0767 30.3342 34.9216 28.9813C34.9421 28.9711 34.9523 28.9506 34.9523 28.9301C35.4033 24.2873 34.2041 20.2594 31.7751 16.6825C31.7649 16.6722 31.7546 16.662 31.7341 16.662ZM20.7164 26.4806C19.6607 26.4806 18.7793 25.5069 18.7793 24.3078C18.7793 23.1086 19.6402 22.135 20.7164 22.135C21.8028 22.135 22.6637 23.1189 22.6535 24.3078C22.6535 25.5069 21.7925 26.4806 20.7164 26.4806ZM27.86 26.4806C26.8043 26.4806 25.9229 25.5069 25.9229 24.3078C25.9229 23.1086 26.7838 22.135 27.86 22.135C28.9464 22.135 29.8073 23.1189 29.797 24.3078C29.797 25.5069 28.9464 26.4806 27.86 26.4806Z" fill="white"/>
</svg>
