<svg width="28" height="292" viewBox="0 0 28 292" fill="none" xmlns="http://www.w3.org/2000/svg">
<g opacity="0.4">
<path d="M1.62001 28.1685L25.8774 3.91107V19.903L1.62001 43.9984V28.1685Z" fill="url(#paint0_linear_204_165)"/>
<path d="M1.62001 28.1685L25.8774 3.91107V19.903L1.62001 43.9984V28.1685Z" fill="url(#paint1_linear_204_165)"/>
<path d="M1.62001 28.1685L25.8774 3.91107V19.903L1.62001 43.9984V28.1685Z" stroke="url(#paint2_linear_204_165)" stroke-width="3.24003"/>
<path d="M1.62001 63.0152L25.8774 38.7577V54.7496L1.62001 78.845V63.0152Z" fill="url(#paint3_linear_204_165)"/>
<path d="M1.62001 63.0152L25.8774 38.7577V54.7496L1.62001 78.845V63.0152Z" fill="url(#paint4_linear_204_165)"/>
<path d="M1.62001 63.0152L25.8774 38.7577V54.7496L1.62001 78.845V63.0152Z" stroke="url(#paint5_linear_204_165)" stroke-width="3.24003"/>
<path d="M1.62001 97.9216L25.8774 73.6101V89.657L1.62001 113.752V97.9216Z" fill="url(#paint6_linear_204_165)"/>
<path d="M1.62001 97.9216L25.8774 73.6101V89.657L1.62001 113.752V97.9216Z" fill="url(#paint7_linear_204_165)"/>
<path d="M1.62001 97.9216L25.8774 73.6101V89.657L1.62001 113.752V97.9216Z" stroke="url(#paint8_linear_204_165)" stroke-width="3.24003"/>
<path d="M1.62001 132.769L25.8774 108.512V124.504L1.62001 148.599V132.769Z" fill="url(#paint9_linear_204_165)"/>
<path d="M1.62001 132.769L25.8774 108.512V124.504L1.62001 148.599V132.769Z" fill="url(#paint10_linear_204_165)"/>
<path d="M1.62001 132.769L25.8774 108.512V124.504L1.62001 148.599V132.769Z" stroke="url(#paint11_linear_204_165)" stroke-width="3.24003"/>
<path d="M1.62001 167.616L25.8774 143.358V159.35L1.62001 183.446V167.616Z" fill="url(#paint12_linear_204_165)"/>
<path d="M1.62001 167.616L25.8774 143.358V159.35L1.62001 183.446V167.616Z" fill="url(#paint13_linear_204_165)"/>
<path d="M1.62001 167.616L25.8774 143.358V159.35L1.62001 183.446V167.616Z" stroke="url(#paint14_linear_204_165)" stroke-width="3.24003"/>
<path d="M1.62001 202.523L25.8774 178.266V194.257L1.62001 218.353V202.523Z" fill="url(#paint15_linear_204_165)"/>
<path d="M1.62001 202.523L25.8774 178.266V194.257L1.62001 218.353V202.523Z" fill="url(#paint16_linear_204_165)"/>
<path d="M1.62001 202.523L25.8774 178.266V194.257L1.62001 218.353V202.523Z" stroke="url(#paint17_linear_204_165)" stroke-width="3.24003"/>
<path d="M1.62001 237.369L25.8774 213.112V229.104L1.62001 253.199V237.369Z" fill="url(#paint18_linear_204_165)"/>
<path d="M1.62001 237.369L25.8774 213.112V229.104L1.62001 253.199V237.369Z" fill="url(#paint19_linear_204_165)"/>
<path d="M1.62001 237.369L25.8774 213.112V229.104L1.62001 253.199V237.369Z" stroke="url(#paint20_linear_204_165)" stroke-width="3.24003"/>
<path d="M1.62001 272.277L25.8774 247.965V264.012L1.62001 288.107V272.277Z" fill="url(#paint21_linear_204_165)"/>
<path d="M1.62001 272.277L25.8774 247.965V264.012L1.62001 288.107V272.277Z" fill="url(#paint22_linear_204_165)"/>
<path d="M1.62001 272.277L25.8774 247.965V264.012L1.62001 288.107V272.277Z" stroke="url(#paint23_linear_204_165)" stroke-width="3.24003"/>
</g>
<defs>
<linearGradient id="paint0_linear_204_165" x1="27.4975" y1="0" x2="-11.409" y2="12.5656" gradientUnits="userSpaceOnUse">
<stop stop-color="#0F1331"/>
<stop offset="1" stop-color="#3E434A"/>
</linearGradient>
<linearGradient id="paint1_linear_204_165" x1="13.7487" y1="47.891" x2="13.7487" y2="0" gradientUnits="userSpaceOnUse">
<stop stop-color="#FF1E2F"/>
<stop offset="1" stop-color="#3EBFFF"/>
</linearGradient>
<linearGradient id="paint2_linear_204_165" x1="13.7487" y1="47.891" x2="13.7487" y2="0" gradientUnits="userSpaceOnUse">
<stop stop-color="#FF1E2F"/>
<stop offset="1" stop-color="#3EBFFF"/>
</linearGradient>
<linearGradient id="paint3_linear_204_165" x1="27.4975" y1="34.8467" x2="-11.409" y2="47.4123" gradientUnits="userSpaceOnUse">
<stop stop-color="#0F1331"/>
<stop offset="1" stop-color="#3E434A"/>
</linearGradient>
<linearGradient id="paint4_linear_204_165" x1="13.7487" y1="82.7376" x2="13.7487" y2="34.8467" gradientUnits="userSpaceOnUse">
<stop stop-color="#FF1E2F"/>
<stop offset="1" stop-color="#3EBFFF"/>
</linearGradient>
<linearGradient id="paint5_linear_204_165" x1="13.7487" y1="82.7376" x2="13.7487" y2="34.8467" gradientUnits="userSpaceOnUse">
<stop stop-color="#FF1E2F"/>
<stop offset="1" stop-color="#3EBFFF"/>
</linearGradient>
<linearGradient id="paint6_linear_204_165" x1="27.4975" y1="69.6929" x2="-11.4184" y2="82.2455" gradientUnits="userSpaceOnUse">
<stop stop-color="#0F1331"/>
<stop offset="1" stop-color="#3E434A"/>
</linearGradient>
<linearGradient id="paint7_linear_204_165" x1="13.7487" y1="117.645" x2="13.7487" y2="69.6929" gradientUnits="userSpaceOnUse">
<stop stop-color="#FF1E2F"/>
<stop offset="1" stop-color="#3EBFFF"/>
</linearGradient>
<linearGradient id="paint8_linear_204_165" x1="13.7487" y1="117.645" x2="13.7487" y2="69.6929" gradientUnits="userSpaceOnUse">
<stop stop-color="#FF1E2F"/>
<stop offset="1" stop-color="#3EBFFF"/>
</linearGradient>
<linearGradient id="paint9_linear_204_165" x1="27.4975" y1="104.601" x2="-11.409" y2="117.166" gradientUnits="userSpaceOnUse">
<stop stop-color="#0F1331"/>
<stop offset="1" stop-color="#3E434A"/>
</linearGradient>
<linearGradient id="paint10_linear_204_165" x1="13.7487" y1="152.492" x2="13.7487" y2="104.601" gradientUnits="userSpaceOnUse">
<stop stop-color="#FF1E2F"/>
<stop offset="1" stop-color="#3EBFFF"/>
</linearGradient>
<linearGradient id="paint11_linear_204_165" x1="13.7487" y1="152.492" x2="13.7487" y2="104.601" gradientUnits="userSpaceOnUse">
<stop stop-color="#FF1E2F"/>
<stop offset="1" stop-color="#3EBFFF"/>
</linearGradient>
<linearGradient id="paint12_linear_204_165" x1="27.4975" y1="139.447" x2="-11.409" y2="152.013" gradientUnits="userSpaceOnUse">
<stop stop-color="#0F1331"/>
<stop offset="1" stop-color="#3E434A"/>
</linearGradient>
<linearGradient id="paint13_linear_204_165" x1="13.7487" y1="187.338" x2="13.7487" y2="139.447" gradientUnits="userSpaceOnUse">
<stop stop-color="#FF1E2F"/>
<stop offset="1" stop-color="#3EBFFF"/>
</linearGradient>
<linearGradient id="paint14_linear_204_165" x1="13.7487" y1="187.338" x2="13.7487" y2="139.447" gradientUnits="userSpaceOnUse">
<stop stop-color="#FF1E2F"/>
<stop offset="1" stop-color="#3EBFFF"/>
</linearGradient>
<linearGradient id="paint15_linear_204_165" x1="27.4975" y1="174.354" x2="-11.409" y2="186.92" gradientUnits="userSpaceOnUse">
<stop stop-color="#0F1331"/>
<stop offset="1" stop-color="#3E434A"/>
</linearGradient>
<linearGradient id="paint16_linear_204_165" x1="13.7487" y1="222.245" x2="13.7487" y2="174.354" gradientUnits="userSpaceOnUse">
<stop stop-color="#FF1E2F"/>
<stop offset="1" stop-color="#3EBFFF"/>
</linearGradient>
<linearGradient id="paint17_linear_204_165" x1="13.7487" y1="222.245" x2="13.7487" y2="174.354" gradientUnits="userSpaceOnUse">
<stop stop-color="#FF1E2F"/>
<stop offset="1" stop-color="#3EBFFF"/>
</linearGradient>
<linearGradient id="paint18_linear_204_165" x1="27.4975" y1="209.201" x2="-11.409" y2="221.766" gradientUnits="userSpaceOnUse">
<stop stop-color="#0F1331"/>
<stop offset="1" stop-color="#3E434A"/>
</linearGradient>
<linearGradient id="paint19_linear_204_165" x1="13.7487" y1="257.092" x2="13.7487" y2="209.201" gradientUnits="userSpaceOnUse">
<stop stop-color="#FF1E2F"/>
<stop offset="1" stop-color="#3EBFFF"/>
</linearGradient>
<linearGradient id="paint20_linear_204_165" x1="13.7487" y1="257.092" x2="13.7487" y2="209.201" gradientUnits="userSpaceOnUse">
<stop stop-color="#FF1E2F"/>
<stop offset="1" stop-color="#3EBFFF"/>
</linearGradient>
<linearGradient id="paint21_linear_204_165" x1="27.4975" y1="244.048" x2="-11.4184" y2="256.6" gradientUnits="userSpaceOnUse">
<stop stop-color="#0F1331"/>
<stop offset="1" stop-color="#3E434A"/>
</linearGradient>
<linearGradient id="paint22_linear_204_165" x1="13.7487" y1="292" x2="13.7487" y2="244.048" gradientUnits="userSpaceOnUse">
<stop stop-color="#FF1E2F"/>
<stop offset="1" stop-color="#3EBFFF"/>
</linearGradient>
<linearGradient id="paint23_linear_204_165" x1="13.7487" y1="292" x2="13.7487" y2="244.048" gradientUnits="userSpaceOnUse">
<stop stop-color="#FF1E2F"/>
<stop offset="1" stop-color="#3EBFFF"/>
</linearGradient>
</defs>
</svg>
