<svg width="74" height="15" viewBox="0 0 74 15" fill="none" xmlns="http://www.w3.org/2000/svg">
<path d="M69.3057 0.147501C67.5455 2.25836 66.1604 4.95132 64.641 7.18607C62.2201 10.7084 59.8348 11.8491 55.877 11.9864L0.327268 11.9864L43.3273 14.486L55.9755 14.8262C59.9924 14.6869 62.8502 13.5299 65.3508 10.5998L65.8051 10.0551C66.0685 9.69332 66.3517 9.33084 66.6545 8.96768C68.7938 5.85183 70.7125 1.4873 73.5588 1.88888e-06L69.3057 0.147501Z" fill="#D9D9D9"/>
<path d="M69.3057 0.147501C67.5455 2.25836 66.1604 4.95132 64.641 7.18607C62.2201 10.7084 59.8348 11.8491 55.877 11.9864L0.327268 11.9864L43.3273 14.486L55.9755 14.8262C59.9924 14.6869 62.8502 13.5299 65.3508 10.5998L65.8051 10.0551C66.0685 9.69332 66.3517 9.33084 66.6545 8.96768C68.7938 5.85183 70.7125 1.4873 73.5588 1.88888e-06L69.3057 0.147501Z" fill="url(#paint0_linear_198_97)"/>
<defs>
<linearGradient id="paint0_linear_198_97" x1="74.0376" y1="14.2694" x2="23.2081" y2="16.0322" gradientUnits="userSpaceOnUse">
<stop stop-color="#9E0000"/>
<stop offset="1" stop-color="#FF1212"/>
</linearGradient>
</defs>
</svg>
