<svg width="28" height="292" viewBox="0 0 28 292" fill="none" xmlns="http://www.w3.org/2000/svg">
<g opacity="0.4">
<path d="M27.4975 0V20.5772L0 47.891V27.4975L27.4975 0Z" fill="url(#paint0_linear_204_120)"/>
<path d="M27.4975 0V20.5772L0 47.891V27.4975L27.4975 0Z" fill="url(#paint1_linear_204_120)"/>
<path d="M27.4975 34.8465V55.4237L0 82.7375V62.344L27.4975 34.8465Z" fill="url(#paint2_linear_204_120)"/>
<path d="M27.4975 34.8465V55.4237L0 82.7375V62.344L27.4975 34.8465Z" fill="url(#paint3_linear_204_120)"/>
<path d="M27.4975 69.6929V90.3313L0 117.645V97.2516L27.4975 69.6929Z" fill="url(#paint4_linear_204_120)"/>
<path d="M27.4975 69.6929V90.3313L0 117.645V97.2516L27.4975 69.6929Z" fill="url(#paint5_linear_204_120)"/>
<path d="M27.4975 104.601V125.178L0 152.492V132.098L27.4975 104.601Z" fill="url(#paint6_linear_204_120)"/>
<path d="M27.4975 104.601V125.178L0 152.492V132.098L27.4975 104.601Z" fill="url(#paint7_linear_204_120)"/>
<path d="M27.4975 139.447V160.024L0 187.338V166.945L27.4975 139.447Z" fill="url(#paint8_linear_204_120)"/>
<path d="M27.4975 139.447V160.024L0 187.338V166.945L27.4975 139.447Z" fill="url(#paint9_linear_204_120)"/>
<path d="M27.4975 174.355V194.932L0 222.246V201.852L27.4975 174.355Z" fill="url(#paint10_linear_204_120)"/>
<path d="M27.4975 174.355V194.932L0 222.246V201.852L27.4975 174.355Z" fill="url(#paint11_linear_204_120)"/>
<path d="M27.4975 209.201V229.778L0 257.092V236.698L27.4975 209.201Z" fill="url(#paint12_linear_204_120)"/>
<path d="M27.4975 209.201V229.778L0 257.092V236.698L27.4975 209.201Z" fill="url(#paint13_linear_204_120)"/>
<path d="M27.4975 244.048V264.686L0 292V271.607L27.4975 244.048Z" fill="url(#paint14_linear_204_120)"/>
<path d="M27.4975 244.048V264.686L0 292V271.607L27.4975 244.048Z" fill="url(#paint15_linear_204_120)"/>
</g>
<defs>
<linearGradient id="paint0_linear_204_120" x1="27.4975" y1="0" x2="-11.409" y2="12.5656" gradientUnits="userSpaceOnUse">
<stop stop-color="#0F1331"/>
<stop offset="1" stop-color="#3E434A"/>
</linearGradient>
<linearGradient id="paint1_linear_204_120" x1="13.7487" y1="47.891" x2="13.7487" y2="0" gradientUnits="userSpaceOnUse">
<stop stop-color="#FF1E2F"/>
<stop offset="1" stop-color="#3EBFFF"/>
</linearGradient>
<linearGradient id="paint2_linear_204_120" x1="27.4975" y1="34.8465" x2="-11.409" y2="47.4121" gradientUnits="userSpaceOnUse">
<stop stop-color="#0F1331"/>
<stop offset="1" stop-color="#3E434A"/>
</linearGradient>
<linearGradient id="paint3_linear_204_120" x1="13.7487" y1="82.7375" x2="13.7487" y2="34.8465" gradientUnits="userSpaceOnUse">
<stop stop-color="#FF1E2F"/>
<stop offset="1" stop-color="#3EBFFF"/>
</linearGradient>
<linearGradient id="paint4_linear_204_120" x1="27.4975" y1="69.6929" x2="-11.4184" y2="82.2455" gradientUnits="userSpaceOnUse">
<stop stop-color="#0F1331"/>
<stop offset="1" stop-color="#3E434A"/>
</linearGradient>
<linearGradient id="paint5_linear_204_120" x1="13.7487" y1="117.645" x2="13.7487" y2="69.6929" gradientUnits="userSpaceOnUse">
<stop stop-color="#FF1E2F"/>
<stop offset="1" stop-color="#3EBFFF"/>
</linearGradient>
<linearGradient id="paint6_linear_204_120" x1="27.4975" y1="104.601" x2="-11.409" y2="117.166" gradientUnits="userSpaceOnUse">
<stop stop-color="#0F1331"/>
<stop offset="1" stop-color="#3E434A"/>
</linearGradient>
<linearGradient id="paint7_linear_204_120" x1="13.7487" y1="152.492" x2="13.7487" y2="104.601" gradientUnits="userSpaceOnUse">
<stop stop-color="#FF1E2F"/>
<stop offset="1" stop-color="#3EBFFF"/>
</linearGradient>
<linearGradient id="paint8_linear_204_120" x1="27.4975" y1="139.447" x2="-11.409" y2="152.013" gradientUnits="userSpaceOnUse">
<stop stop-color="#0F1331"/>
<stop offset="1" stop-color="#3E434A"/>
</linearGradient>
<linearGradient id="paint9_linear_204_120" x1="13.7487" y1="187.338" x2="13.7487" y2="139.447" gradientUnits="userSpaceOnUse">
<stop stop-color="#FF1E2F"/>
<stop offset="1" stop-color="#3EBFFF"/>
</linearGradient>
<linearGradient id="paint10_linear_204_120" x1="27.4975" y1="174.355" x2="-11.409" y2="186.92" gradientUnits="userSpaceOnUse">
<stop stop-color="#0F1331"/>
<stop offset="1" stop-color="#3E434A"/>
</linearGradient>
<linearGradient id="paint11_linear_204_120" x1="13.7487" y1="222.246" x2="13.7487" y2="174.355" gradientUnits="userSpaceOnUse">
<stop stop-color="#FF1E2F"/>
<stop offset="1" stop-color="#3EBFFF"/>
</linearGradient>
<linearGradient id="paint12_linear_204_120" x1="27.4975" y1="209.201" x2="-11.409" y2="221.766" gradientUnits="userSpaceOnUse">
<stop stop-color="#0F1331"/>
<stop offset="1" stop-color="#3E434A"/>
</linearGradient>
<linearGradient id="paint13_linear_204_120" x1="13.7487" y1="257.092" x2="13.7487" y2="209.201" gradientUnits="userSpaceOnUse">
<stop stop-color="#FF1E2F"/>
<stop offset="1" stop-color="#3EBFFF"/>
</linearGradient>
<linearGradient id="paint14_linear_204_120" x1="27.4975" y1="244.048" x2="-11.4184" y2="256.601" gradientUnits="userSpaceOnUse">
<stop stop-color="#0F1331"/>
<stop offset="1" stop-color="#3E434A"/>
</linearGradient>
<linearGradient id="paint15_linear_204_120" x1="13.7487" y1="292" x2="13.7487" y2="244.048" gradientUnits="userSpaceOnUse">
<stop stop-color="#FF1E2F"/>
<stop offset="1" stop-color="#3EBFFF"/>
</linearGradient>
</defs>
</svg>
