<svg width="236" height="76" viewBox="0 0 236 76" fill="none" xmlns="http://www.w3.org/2000/svg">
<g filter="url(#filter0_d_242_158)">
<mask id="path-1-outside-1_242_158" maskUnits="userSpaceOnUse" x="9.89661" y="5.99356" width="220.492" height="69.5733" fill="black">
<rect fill="white" x="9.89661" y="5.99356" width="220.492" height="69.5733"/>
<path d="M27.7049 15.0315C27.6961 16.2349 27.4118 17.3377 26.852 18.3399C26.2924 19.3224 25.4383 20.1153 24.2896 20.7186C23.1409 21.322 21.7182 21.6176 20.0216 21.6055L16.8849 21.583L16.8303 29.0402L11.7701 29.004L11.922 8.23037L20.119 8.28906C21.7762 8.30092 23.1748 8.59701 24.3148 9.17731C25.4548 9.75762 26.3072 10.5529 26.872 11.5631C27.4368 12.5733 27.7144 13.7295 27.7049 15.0315ZM19.6663 17.5782C20.633 17.5851 21.3548 17.3634 21.8315 16.9131C22.3083 16.4627 22.5498 15.8232 22.5558 14.9947C22.5619 14.1661 22.3298 13.5232 21.8597 13.0661C21.3895 12.609 20.6711 12.3769 19.7044 12.37L16.9524 12.3503L16.9143 17.5585L19.6663 17.5782ZM40.5084 12.519C42.4023 12.5325 43.9167 13.1747 45.0517 14.4455C46.1869 15.6965 46.7464 17.417 46.7304 19.6068L46.6599 29.2538L41.6292 29.2178L41.6948 20.2514C41.7028 19.1466 41.4231 18.2864 40.8554 17.6707C40.2878 17.0551 39.5206 16.7438 38.5539 16.7369C37.5873 16.7299 36.8156 17.0302 36.2391 17.6377C35.6625 18.2452 35.3701 19.1013 35.3621 20.206L35.2965 29.1724L30.2362 29.1362L30.3964 7.23808L35.4566 7.27431L35.401 14.8795C35.9193 14.1532 36.6239 13.5762 37.5148 13.1486C38.4058 12.7209 39.4036 12.5111 40.5084 12.519ZM57.6909 29.5695C56.0732 29.558 54.6158 29.2023 53.3188 28.5025C52.0416 27.8028 51.0328 26.8091 50.2925 25.5214C49.5719 24.2339 49.2179 22.7319 49.2305 21.0156C49.2429 19.319 49.6286 17.8322 50.3876 16.5552C51.1468 15.2586 52.18 14.2696 53.4871 13.5885C54.7942 12.9073 56.2566 12.5725 57.8743 12.5841C59.492 12.5957 60.9493 12.9514 62.2463 13.6512C63.5434 14.351 64.5619 15.3546 65.3021 16.662C66.0424 17.9497 66.4063 19.4419 66.3939 21.1385C66.3815 22.8351 65.9858 24.3317 65.2069 25.6282C64.4479 26.9052 63.4049 27.8842 62.0781 28.5652C60.771 29.2463 59.3086 29.5811 57.6909 29.5695ZM57.7229 25.1899C58.6896 25.1968 59.5109 24.8476 60.1869 24.1422C60.8825 23.4369 61.2352 22.4234 61.2449 21.1016C61.2545 19.7798 60.9266 18.7614 60.261 18.0464C59.6152 17.3316 58.8089 16.9707 57.8423 16.9637C56.8559 16.9567 56.0345 17.3059 55.3783 18.0115C54.7223 18.6973 54.3893 19.7109 54.3795 21.0525C54.3698 22.3742 54.6781 23.3925 55.3042 24.1072C55.95 24.8221 56.7562 25.183 57.7229 25.1899ZM79.2014 12.796C81.1348 12.8098 82.669 13.4521 83.804 14.7229C84.9588 15.9741 85.5283 17.6946 85.5122 19.8845L85.4417 29.5315L80.411 29.4955L80.4766 20.5291C80.4847 19.4243 80.2049 18.5641 79.6373 17.9484C79.0696 17.3327 78.3025 17.0214 77.3358 17.0145C76.3691 17.0076 75.5975 17.3079 75.0209 17.9154C74.4443 18.5228 74.152 19.3789 74.1439 20.4837L74.0783 29.4501L69.0181 29.4139L69.1388 12.9015L74.1991 12.9377L74.1831 15.1276C74.7013 14.4013 75.396 13.8341 76.2671 13.426C77.1383 12.9982 78.1164 12.7882 79.2014 12.796ZM104.586 21.1456C104.582 21.6191 104.549 22.112 104.486 22.6245L93.0341 22.5426C93.1055 23.569 93.4253 24.3604 93.9933 24.9169C94.5813 25.4538 95.2994 25.7253 96.1477 25.7314C97.4103 25.7404 98.2921 25.214 98.7931 24.1522L104.179 24.1908C103.895 25.2739 103.385 26.2468 102.648 27.1096C101.932 27.9726 101.029 28.6468 99.9404 29.1322C98.8518 29.6176 97.6367 29.8555 96.2952 29.8459C94.6775 29.8343 93.2399 29.4788 91.9823 28.7793C90.7248 28.0798 89.7456 27.0863 89.0447 25.7989C88.3439 24.5115 87.9998 23.0096 88.0123 21.2933C88.0249 19.5769 88.3811 18.0801 89.0809 16.8027C89.8005 15.5254 90.7941 14.5461 92.0618 13.8647C93.3294 13.1832 94.782 12.8484 96.4194 12.8601C98.0174 12.8715 99.4353 13.2171 100.673 13.8967C101.911 14.5764 102.871 15.5401 103.552 16.7879C104.253 18.0359 104.598 19.4884 104.586 21.1456ZM99.417 19.7769C99.4233 18.9088 99.1324 18.2162 98.5443 17.6991C97.9563 17.1819 97.2183 16.9201 96.3306 16.9138C95.4823 16.9077 94.7604 17.1491 94.1649 17.6381C93.5892 18.1272 93.229 18.825 93.0843 19.7315L99.417 19.7769ZM127.14 9.05529L127.11 13.1094L118.647 13.0488L118.615 17.4284L124.947 17.4738L124.918 21.4095L118.586 21.3642L118.524 29.7683L113.464 29.7321L113.616 8.95847L127.14 9.05529ZM128.702 21.555C128.714 19.8584 129.041 18.3712 129.681 17.0934C130.342 15.8157 131.227 14.8356 132.337 14.153C133.446 13.4704 134.682 13.134 136.043 13.1438C137.207 13.1521 138.221 13.3961 139.086 13.8758C139.97 14.3556 140.646 14.9819 141.114 15.7547L141.131 13.417L146.192 13.4532L146.071 29.9656L141.011 29.9293L141.028 27.5916C140.529 28.3574 139.834 28.9739 138.943 29.441C138.071 29.9083 137.053 30.1377 135.889 30.1294C134.548 30.1198 133.327 29.7658 132.228 29.0674C131.128 28.3493 130.257 27.3467 129.616 26.0598C128.994 24.7532 128.689 23.2516 128.702 21.555ZM141.071 21.6731C141.08 20.4105 140.732 19.4117 140.028 18.6767C139.342 17.9418 138.497 17.5708 137.491 17.5636C136.484 17.5564 135.624 17.9152 134.908 18.6401C134.212 19.3453 133.86 20.3293 133.851 21.5919C133.841 22.8544 134.179 23.8631 134.864 24.6177C135.569 25.3527 136.425 25.7238 137.431 25.731C138.437 25.7382 139.288 25.3793 139.984 24.6543C140.699 23.9295 141.062 22.9357 141.071 21.6731ZM148.786 21.7284C148.798 20.012 149.155 18.5152 149.855 17.2378C150.574 15.9606 151.558 14.9812 152.806 14.2996C154.073 13.6181 155.516 13.2832 157.134 13.2948C159.205 13.3096 160.928 13.8645 162.301 14.9594C163.693 16.0545 164.599 17.59 165.019 19.5659L159.633 19.5273C159.189 18.2615 158.316 17.6239 157.013 17.6146C156.086 17.6079 155.344 17.9676 154.786 18.6936C154.228 19.3999 153.945 20.4237 153.935 21.7652C153.925 23.1068 154.194 24.1445 154.741 24.8783C155.288 25.5925 156.025 25.9529 156.952 25.9596C158.254 25.9689 159.137 25.3439 159.6 24.0845L164.986 24.1231C164.538 26.0533 163.609 27.5658 162.2 28.6606C160.792 29.7553 159.061 30.2953 157.01 30.2806C155.392 30.269 153.954 29.9135 152.697 29.214C151.459 28.5146 150.49 27.5212 149.789 26.2338C149.108 24.9465 148.773 23.4447 148.786 21.7284ZM176.883 25.8951L176.852 30.1859L174.277 30.1675C172.443 30.1544 171.016 29.7003 169.996 28.8051C168.977 27.8903 168.475 26.4169 168.49 24.3849L168.538 17.8155L166.526 17.8011L166.556 13.599L168.569 13.6134L168.598 9.58888L173.658 9.62511L173.629 13.6496L176.943 13.6734L176.912 17.8754L173.598 17.8517L173.55 24.4803C173.546 24.9735 173.662 25.3295 173.897 25.5482C174.132 25.7669 174.526 25.8782 175.078 25.8822L176.883 25.8951ZM187.185 30.4967C185.568 30.4851 184.11 30.1294 182.813 29.4296C181.536 28.7299 180.527 27.7363 179.787 26.4486C179.066 25.161 178.712 23.6591 178.725 21.9427C178.737 20.2461 179.123 18.7593 179.882 17.4824C180.641 16.1857 181.674 15.1968 182.981 14.5156C184.289 13.8345 185.751 13.4997 187.369 13.5113C188.986 13.5228 190.444 13.8785 191.741 14.5783C193.038 15.2781 194.056 16.2817 194.796 17.5892C195.537 18.8769 195.901 20.369 195.888 22.0656C195.876 23.7622 195.48 25.2588 194.701 26.5554C193.942 27.8323 192.899 28.8113 191.572 29.4923C190.265 30.1735 188.803 30.5083 187.185 30.4967ZM187.217 26.1171C188.184 26.124 189.005 25.7747 189.681 25.0693C190.377 24.3641 190.73 23.3505 190.739 22.0288C190.749 20.707 190.421 19.6886 189.755 18.9736C189.11 18.2587 188.303 17.8978 187.337 17.8909C186.35 17.8838 185.529 18.2331 184.873 18.9386C184.217 19.6244 183.884 20.6381 183.874 21.9796C183.864 23.3014 184.172 24.3196 184.799 25.0344C185.444 25.7492 186.251 26.1101 187.217 26.1171ZM203.673 16.6169C204.272 15.7137 205.017 15.0088 205.908 14.5022C206.8 13.9759 207.788 13.7166 208.873 13.7244L208.834 19.0806L207.443 19.0706C206.181 19.0616 205.232 19.331 204.596 19.8789C203.961 20.407 203.639 21.3517 203.629 22.7129L203.573 30.3773L198.512 30.341L198.633 13.8287L203.693 13.8649L203.673 16.6169ZM228.158 14.04L217.623 38.3202L212.178 38.2812L216.027 29.9042L209.426 13.9059L215.079 13.9464L218.82 24.3014L222.684 14.0008L228.158 14.04ZM79.7905 44.7172L79.7609 48.7713L74.2567 48.7319L74.1345 65.4514L69.0742 65.4152L69.1965 48.6957L63.6923 48.6563L63.722 44.6022L79.7905 44.7172ZM99.1664 49.1174L88.6311 73.3975L83.1862 73.3586L87.0354 64.9815L80.4346 48.9833L86.0867 49.0238L89.8286 59.3787L93.6919 49.0782L99.1664 49.1174ZM99.9298 57.3795C99.9423 55.6632 100.299 54.1663 100.998 52.8889C101.718 51.6117 102.702 50.6323 103.95 49.9507C105.217 49.2693 106.66 48.9343 108.278 48.9459C110.349 48.9607 112.071 49.5156 113.444 50.6105C114.837 51.7056 115.743 53.2411 116.163 55.217L110.777 55.1785C110.333 53.9126 109.459 53.275 108.157 53.2657C107.23 53.2591 106.488 53.6187 105.93 54.3447C105.372 55.051 105.089 56.0749 105.079 57.4164C105.069 58.7579 105.338 59.7956 105.885 60.5295C106.432 61.2436 107.169 61.604 108.096 61.6107C109.398 61.62 110.281 60.995 110.744 59.7356L116.13 59.7742C115.681 61.7044 114.753 63.2169 113.344 64.3117C111.935 65.4064 110.205 65.9464 108.153 65.9318C106.536 65.9202 105.098 65.5646 103.841 64.8651C102.603 64.1657 101.633 63.1723 100.933 61.8849C100.252 60.5977 99.9172 59.0958 99.9298 57.3795ZM126.307 66.0617C124.69 66.0502 123.232 65.6945 121.935 64.9947C120.658 64.295 119.649 63.3013 118.909 62.0136C118.188 60.7261 117.834 59.2241 117.847 57.5078C117.859 55.8112 118.245 54.3244 119.004 53.0474C119.763 51.7508 120.796 50.7618 122.104 50.0807C123.411 49.3995 124.873 49.0647 126.491 49.0763C128.108 49.0879 129.566 49.4436 130.863 50.1434C132.16 50.8432 133.178 51.8468 133.918 53.1542C134.659 54.4419 135.023 55.9341 135.01 57.6307C134.998 59.3273 134.602 60.8239 133.823 62.1204C133.064 63.3974 132.021 64.3763 130.695 65.0574C129.387 65.7385 127.925 66.0733 126.307 66.0617ZM126.339 61.6821C127.306 61.689 128.127 61.3398 128.803 60.6344C129.499 59.9291 129.852 58.9156 129.861 57.5938C129.871 56.272 129.543 55.2536 128.877 54.5386C128.232 53.8238 127.425 53.4629 126.459 53.4559C125.472 53.4489 124.651 53.7981 123.995 54.5037C123.339 55.1895 123.006 56.2031 122.996 57.5447C122.986 58.8664 123.294 59.8847 123.921 60.5994C124.566 61.3143 125.373 61.6752 126.339 61.6821ZM145.149 66.1966C143.531 66.1851 142.074 65.8294 140.777 65.1296C139.5 64.4299 138.491 63.4362 137.751 62.1485C137.03 60.861 136.676 59.359 136.689 57.6427C136.701 55.9461 137.087 54.4593 137.846 53.1823C138.605 51.8857 139.638 50.8967 140.945 50.2156C142.252 49.5344 143.715 49.1996 145.333 49.2112C146.95 49.2228 148.408 49.5785 149.705 50.2783C151.002 50.9781 152.02 51.9817 152.76 53.2891C153.501 54.5768 153.865 56.069 153.852 57.7656C153.84 59.4622 153.444 60.9588 152.665 62.2553C151.906 63.5323 150.863 64.5113 149.536 65.1923C148.229 65.8734 146.767 66.2082 145.149 66.1966ZM145.181 61.817C146.148 61.8239 146.969 61.4747 147.645 60.7693C148.341 60.064 148.693 59.0505 148.703 57.7287C148.713 56.4069 148.385 55.3885 147.719 54.6735C147.073 53.9587 146.267 53.5978 145.301 53.5908C144.314 53.5838 143.493 53.933 142.837 54.6386C142.181 55.3244 141.848 56.338 141.838 57.6796C141.828 59.0013 142.136 60.0196 142.762 60.7343C143.408 61.4492 144.215 61.8101 145.181 61.817ZM166.66 49.4231C168.593 49.4369 170.127 50.0792 171.262 51.35C172.417 52.6012 172.987 54.3217 172.971 56.5116L172.9 66.1586L167.869 66.1226L167.935 57.1562C167.943 56.0514 167.663 55.1912 167.096 54.5755C166.528 53.9598 165.761 53.6485 164.794 53.6416C163.827 53.6347 163.056 53.935 162.479 54.5425C161.903 55.1499 161.61 56.006 161.602 57.1108L161.537 66.0772L156.476 66.041L156.597 49.5286L161.657 49.5648L161.641 51.7547C162.16 51.0284 162.854 50.4612 163.725 50.0531C164.597 49.6253 165.575 49.4153 166.66 49.4231Z"/>
</mask>
<path d="M27.7049 15.0315C27.6961 16.2349 27.4118 17.3377 26.852 18.3399C26.2924 19.3224 25.4383 20.1153 24.2896 20.7186C23.1409 21.322 21.7182 21.6176 20.0216 21.6055L16.8849 21.583L16.8303 29.0402L11.7701 29.004L11.922 8.23037L20.119 8.28906C21.7762 8.30092 23.1748 8.59701 24.3148 9.17731C25.4548 9.75762 26.3072 10.5529 26.872 11.5631C27.4368 12.5733 27.7144 13.7295 27.7049 15.0315ZM19.6663 17.5782C20.633 17.5851 21.3548 17.3634 21.8315 16.9131C22.3083 16.4627 22.5498 15.8232 22.5558 14.9947C22.5619 14.1661 22.3298 13.5232 21.8597 13.0661C21.3895 12.609 20.6711 12.3769 19.7044 12.37L16.9524 12.3503L16.9143 17.5585L19.6663 17.5782ZM40.5084 12.519C42.4023 12.5325 43.9167 13.1747 45.0517 14.4455C46.1869 15.6965 46.7464 17.417 46.7304 19.6068L46.6599 29.2538L41.6292 29.2178L41.6948 20.2514C41.7028 19.1466 41.4231 18.2864 40.8554 17.6707C40.2878 17.0551 39.5206 16.7438 38.5539 16.7369C37.5873 16.7299 36.8156 17.0302 36.2391 17.6377C35.6625 18.2452 35.3701 19.1013 35.3621 20.206L35.2965 29.1724L30.2362 29.1362L30.3964 7.23808L35.4566 7.27431L35.401 14.8795C35.9193 14.1532 36.6239 13.5762 37.5148 13.1486C38.4058 12.7209 39.4036 12.5111 40.5084 12.519ZM57.6909 29.5695C56.0732 29.558 54.6158 29.2023 53.3188 28.5025C52.0416 27.8028 51.0328 26.8091 50.2925 25.5214C49.5719 24.2339 49.2179 22.7319 49.2305 21.0156C49.2429 19.319 49.6286 17.8322 50.3876 16.5552C51.1468 15.2586 52.18 14.2696 53.4871 13.5885C54.7942 12.9073 56.2566 12.5725 57.8743 12.5841C59.492 12.5957 60.9493 12.9514 62.2463 13.6512C63.5434 14.351 64.5619 15.3546 65.3021 16.662C66.0424 17.9497 66.4063 19.4419 66.3939 21.1385C66.3815 22.8351 65.9858 24.3317 65.2069 25.6282C64.4479 26.9052 63.4049 27.8842 62.0781 28.5652C60.771 29.2463 59.3086 29.5811 57.6909 29.5695ZM57.7229 25.1899C58.6896 25.1968 59.5109 24.8476 60.1869 24.1422C60.8825 23.4369 61.2352 22.4234 61.2449 21.1016C61.2545 19.7798 60.9266 18.7614 60.261 18.0464C59.6152 17.3316 58.8089 16.9707 57.8423 16.9637C56.8559 16.9567 56.0345 17.3059 55.3783 18.0115C54.7223 18.6973 54.3893 19.7109 54.3795 21.0525C54.3698 22.3742 54.6781 23.3925 55.3042 24.1072C55.95 24.8221 56.7562 25.183 57.7229 25.1899ZM79.2014 12.796C81.1348 12.8098 82.669 13.4521 83.804 14.7229C84.9588 15.9741 85.5283 17.6946 85.5122 19.8845L85.4417 29.5315L80.411 29.4955L80.4766 20.5291C80.4847 19.4243 80.2049 18.5641 79.6373 17.9484C79.0696 17.3327 78.3025 17.0214 77.3358 17.0145C76.3691 17.0076 75.5975 17.3079 75.0209 17.9154C74.4443 18.5228 74.152 19.3789 74.1439 20.4837L74.0783 29.4501L69.0181 29.4139L69.1388 12.9015L74.1991 12.9377L74.1831 15.1276C74.7013 14.4013 75.396 13.8341 76.2671 13.426C77.1383 12.9982 78.1164 12.7882 79.2014 12.796ZM104.586 21.1456C104.582 21.6191 104.549 22.112 104.486 22.6245L93.0341 22.5426C93.1055 23.569 93.4253 24.3604 93.9933 24.9169C94.5813 25.4538 95.2994 25.7253 96.1477 25.7314C97.4103 25.7404 98.2921 25.214 98.7931 24.1522L104.179 24.1908C103.895 25.2739 103.385 26.2468 102.648 27.1096C101.932 27.9726 101.029 28.6468 99.9404 29.1322C98.8518 29.6176 97.6367 29.8555 96.2952 29.8459C94.6775 29.8343 93.2399 29.4788 91.9823 28.7793C90.7248 28.0798 89.7456 27.0863 89.0447 25.7989C88.3439 24.5115 87.9998 23.0096 88.0123 21.2933C88.0249 19.5769 88.3811 18.0801 89.0809 16.8027C89.8005 15.5254 90.7941 14.5461 92.0618 13.8647C93.3294 13.1832 94.782 12.8484 96.4194 12.8601C98.0174 12.8715 99.4353 13.2171 100.673 13.8967C101.911 14.5764 102.871 15.5401 103.552 16.7879C104.253 18.0359 104.598 19.4884 104.586 21.1456ZM99.417 19.7769C99.4233 18.9088 99.1324 18.2162 98.5443 17.6991C97.9563 17.1819 97.2183 16.9201 96.3306 16.9138C95.4823 16.9077 94.7604 17.1491 94.1649 17.6381C93.5892 18.1272 93.229 18.825 93.0843 19.7315L99.417 19.7769ZM127.14 9.05529L127.11 13.1094L118.647 13.0488L118.615 17.4284L124.947 17.4738L124.918 21.4095L118.586 21.3642L118.524 29.7683L113.464 29.7321L113.616 8.95847L127.14 9.05529ZM128.702 21.555C128.714 19.8584 129.041 18.3712 129.681 17.0934C130.342 15.8157 131.227 14.8356 132.337 14.153C133.446 13.4704 134.682 13.134 136.043 13.1438C137.207 13.1521 138.221 13.3961 139.086 13.8758C139.97 14.3556 140.646 14.9819 141.114 15.7547L141.131 13.417L146.192 13.4532L146.071 29.9656L141.011 29.9293L141.028 27.5916C140.529 28.3574 139.834 28.9739 138.943 29.441C138.071 29.9083 137.053 30.1377 135.889 30.1294C134.548 30.1198 133.327 29.7658 132.228 29.0674C131.128 28.3493 130.257 27.3467 129.616 26.0598C128.994 24.7532 128.689 23.2516 128.702 21.555ZM141.071 21.6731C141.08 20.4105 140.732 19.4117 140.028 18.6767C139.342 17.9418 138.497 17.5708 137.491 17.5636C136.484 17.5564 135.624 17.9152 134.908 18.6401C134.212 19.3453 133.86 20.3293 133.851 21.5919C133.841 22.8544 134.179 23.8631 134.864 24.6177C135.569 25.3527 136.425 25.7238 137.431 25.731C138.437 25.7382 139.288 25.3793 139.984 24.6543C140.699 23.9295 141.062 22.9357 141.071 21.6731ZM148.786 21.7284C148.798 20.012 149.155 18.5152 149.855 17.2378C150.574 15.9606 151.558 14.9812 152.806 14.2996C154.073 13.6181 155.516 13.2832 157.134 13.2948C159.205 13.3096 160.928 13.8645 162.301 14.9594C163.693 16.0545 164.599 17.59 165.019 19.5659L159.633 19.5273C159.189 18.2615 158.316 17.6239 157.013 17.6146C156.086 17.6079 155.344 17.9676 154.786 18.6936C154.228 19.3999 153.945 20.4237 153.935 21.7652C153.925 23.1068 154.194 24.1445 154.741 24.8783C155.288 25.5925 156.025 25.9529 156.952 25.9596C158.254 25.9689 159.137 25.3439 159.6 24.0845L164.986 24.1231C164.538 26.0533 163.609 27.5658 162.2 28.6606C160.792 29.7553 159.061 30.2953 157.01 30.2806C155.392 30.269 153.954 29.9135 152.697 29.214C151.459 28.5146 150.49 27.5212 149.789 26.2338C149.108 24.9465 148.773 23.4447 148.786 21.7284ZM176.883 25.8951L176.852 30.1859L174.277 30.1675C172.443 30.1544 171.016 29.7003 169.996 28.8051C168.977 27.8903 168.475 26.4169 168.49 24.3849L168.538 17.8155L166.526 17.8011L166.556 13.599L168.569 13.6134L168.598 9.58888L173.658 9.62511L173.629 13.6496L176.943 13.6734L176.912 17.8754L173.598 17.8517L173.55 24.4803C173.546 24.9735 173.662 25.3295 173.897 25.5482C174.132 25.7669 174.526 25.8782 175.078 25.8822L176.883 25.8951ZM187.185 30.4967C185.568 30.4851 184.11 30.1294 182.813 29.4296C181.536 28.7299 180.527 27.7363 179.787 26.4486C179.066 25.161 178.712 23.6591 178.725 21.9427C178.737 20.2461 179.123 18.7593 179.882 17.4824C180.641 16.1857 181.674 15.1968 182.981 14.5156C184.289 13.8345 185.751 13.4997 187.369 13.5113C188.986 13.5228 190.444 13.8785 191.741 14.5783C193.038 15.2781 194.056 16.2817 194.796 17.5892C195.537 18.8769 195.901 20.369 195.888 22.0656C195.876 23.7622 195.48 25.2588 194.701 26.5554C193.942 27.8323 192.899 28.8113 191.572 29.4923C190.265 30.1735 188.803 30.5083 187.185 30.4967ZM187.217 26.1171C188.184 26.124 189.005 25.7747 189.681 25.0693C190.377 24.3641 190.73 23.3505 190.739 22.0288C190.749 20.707 190.421 19.6886 189.755 18.9736C189.11 18.2587 188.303 17.8978 187.337 17.8909C186.35 17.8838 185.529 18.2331 184.873 18.9386C184.217 19.6244 183.884 20.6381 183.874 21.9796C183.864 23.3014 184.172 24.3196 184.799 25.0344C185.444 25.7492 186.251 26.1101 187.217 26.1171ZM203.673 16.6169C204.272 15.7137 205.017 15.0088 205.908 14.5022C206.8 13.9759 207.788 13.7166 208.873 13.7244L208.834 19.0806L207.443 19.0706C206.181 19.0616 205.232 19.331 204.596 19.8789C203.961 20.407 203.639 21.3517 203.629 22.7129L203.573 30.3773L198.512 30.341L198.633 13.8287L203.693 13.8649L203.673 16.6169ZM228.158 14.04L217.623 38.3202L212.178 38.2812L216.027 29.9042L209.426 13.9059L215.079 13.9464L218.82 24.3014L222.684 14.0008L228.158 14.04ZM79.7905 44.7172L79.7609 48.7713L74.2567 48.7319L74.1345 65.4514L69.0742 65.4152L69.1965 48.6957L63.6923 48.6563L63.722 44.6022L79.7905 44.7172ZM99.1664 49.1174L88.6311 73.3975L83.1862 73.3586L87.0354 64.9815L80.4346 48.9833L86.0867 49.0238L89.8286 59.3787L93.6919 49.0782L99.1664 49.1174ZM99.9298 57.3795C99.9423 55.6632 100.299 54.1663 100.998 52.8889C101.718 51.6117 102.702 50.6323 103.95 49.9507C105.217 49.2693 106.66 48.9343 108.278 48.9459C110.349 48.9607 112.071 49.5156 113.444 50.6105C114.837 51.7056 115.743 53.2411 116.163 55.217L110.777 55.1785C110.333 53.9126 109.459 53.275 108.157 53.2657C107.23 53.2591 106.488 53.6187 105.93 54.3447C105.372 55.051 105.089 56.0749 105.079 57.4164C105.069 58.7579 105.338 59.7956 105.885 60.5295C106.432 61.2436 107.169 61.604 108.096 61.6107C109.398 61.62 110.281 60.995 110.744 59.7356L116.13 59.7742C115.681 61.7044 114.753 63.2169 113.344 64.3117C111.935 65.4064 110.205 65.9464 108.153 65.9318C106.536 65.9202 105.098 65.5646 103.841 64.8651C102.603 64.1657 101.633 63.1723 100.933 61.8849C100.252 60.5977 99.9172 59.0958 99.9298 57.3795ZM126.307 66.0617C124.69 66.0502 123.232 65.6945 121.935 64.9947C120.658 64.295 119.649 63.3013 118.909 62.0136C118.188 60.7261 117.834 59.2241 117.847 57.5078C117.859 55.8112 118.245 54.3244 119.004 53.0474C119.763 51.7508 120.796 50.7618 122.104 50.0807C123.411 49.3995 124.873 49.0647 126.491 49.0763C128.108 49.0879 129.566 49.4436 130.863 50.1434C132.16 50.8432 133.178 51.8468 133.918 53.1542C134.659 54.4419 135.023 55.9341 135.01 57.6307C134.998 59.3273 134.602 60.8239 133.823 62.1204C133.064 63.3974 132.021 64.3763 130.695 65.0574C129.387 65.7385 127.925 66.0733 126.307 66.0617ZM126.339 61.6821C127.306 61.689 128.127 61.3398 128.803 60.6344C129.499 59.9291 129.852 58.9156 129.861 57.5938C129.871 56.272 129.543 55.2536 128.877 54.5386C128.232 53.8238 127.425 53.4629 126.459 53.4559C125.472 53.4489 124.651 53.7981 123.995 54.5037C123.339 55.1895 123.006 56.2031 122.996 57.5447C122.986 58.8664 123.294 59.8847 123.921 60.5994C124.566 61.3143 125.373 61.6752 126.339 61.6821ZM145.149 66.1966C143.531 66.1851 142.074 65.8294 140.777 65.1296C139.5 64.4299 138.491 63.4362 137.751 62.1485C137.03 60.861 136.676 59.359 136.689 57.6427C136.701 55.9461 137.087 54.4593 137.846 53.1823C138.605 51.8857 139.638 50.8967 140.945 50.2156C142.252 49.5344 143.715 49.1996 145.333 49.2112C146.95 49.2228 148.408 49.5785 149.705 50.2783C151.002 50.9781 152.02 51.9817 152.76 53.2891C153.501 54.5768 153.865 56.069 153.852 57.7656C153.84 59.4622 153.444 60.9588 152.665 62.2553C151.906 63.5323 150.863 64.5113 149.536 65.1923C148.229 65.8734 146.767 66.2082 145.149 66.1966ZM145.181 61.817C146.148 61.8239 146.969 61.4747 147.645 60.7693C148.341 60.064 148.693 59.0505 148.703 57.7287C148.713 56.4069 148.385 55.3885 147.719 54.6735C147.073 53.9587 146.267 53.5978 145.301 53.5908C144.314 53.5838 143.493 53.933 142.837 54.6386C142.181 55.3244 141.848 56.338 141.838 57.6796C141.828 59.0013 142.136 60.0196 142.762 60.7343C143.408 61.4492 144.215 61.8101 145.181 61.817ZM166.66 49.4231C168.593 49.4369 170.127 50.0792 171.262 51.35C172.417 52.6012 172.987 54.3217 172.971 56.5116L172.9 66.1586L167.869 66.1226L167.935 57.1562C167.943 56.0514 167.663 55.1912 167.096 54.5755C166.528 53.9598 165.761 53.6485 164.794 53.6416C163.827 53.6347 163.056 53.935 162.479 54.5425C161.903 55.1499 161.61 56.006 161.602 57.1108L161.537 66.0772L156.476 66.041L156.597 49.5286L161.657 49.5648L161.641 51.7547C162.16 51.0284 162.854 50.4612 163.725 50.0531C164.597 49.6253 165.575 49.4153 166.66 49.4231Z" fill="white"/>
<path d="M26.852 18.3399L27.5323 18.7273L27.5356 18.7216L26.852 18.3399ZM24.2896 20.7186L23.9256 20.0255L24.2896 20.7186ZM16.8849 21.583L16.8906 20.8001L16.1077 20.7945L16.102 21.5774L16.8849 21.583ZM16.8303 29.0402L16.8246 29.8231L17.6075 29.8287L17.6132 29.0458L16.8303 29.0402ZM11.7701 29.004L10.9872 28.9984L10.9814 29.7813L11.7643 29.7869L11.7701 29.004ZM11.922 8.23037L11.9277 7.44747L11.1448 7.44187L11.1391 8.22476L11.922 8.23037ZM24.3148 9.17731L24.67 8.47958L24.67 8.47958L24.3148 9.17731ZM21.8597 13.0661L21.3139 13.6275L21.8597 13.0661ZM16.9524 12.3503L16.9581 11.5674L16.1752 11.5618L16.1695 12.3447L16.9524 12.3503ZM16.9143 17.5585L16.1314 17.5529L16.1257 18.3358L16.9086 18.3414L16.9143 17.5585ZM26.922 15.0259C26.9141 16.1042 26.6609 17.0767 26.1685 17.9582L27.5356 18.7216C28.1627 17.5988 28.478 16.3657 28.4877 15.0371L26.922 15.0259ZM26.1718 17.9525C25.6967 18.7866 24.9619 19.4812 23.9256 20.0255L24.6536 21.4117C25.9147 20.7493 26.8882 19.8581 27.5323 18.7273L26.1718 17.9525ZM23.9256 20.0255C22.9206 20.5535 21.6335 20.8341 20.0273 20.8226L20.0159 22.3884C21.8029 22.4012 23.3612 22.0906 24.6536 21.4117L23.9256 20.0255ZM20.0273 20.8226L16.8906 20.8001L16.8791 22.3659L20.0159 22.3884L20.0273 20.8226ZM16.102 21.5774L16.0474 29.0346L17.6132 29.0458L17.6677 21.5886L16.102 21.5774ZM16.836 28.2573L11.7758 28.2211L11.7643 29.7869L16.8246 29.8231L16.836 28.2573ZM12.553 29.0096L12.7049 8.23597L11.1391 8.22476L10.9872 28.9984L12.553 29.0096ZM11.9163 9.01326L20.1133 9.07195L20.1247 7.50616L11.9277 7.44747L11.9163 9.01326ZM20.1133 9.07195C21.6835 9.0832 22.955 9.3637 23.9596 9.87505L24.67 8.47958C23.3945 7.83032 21.8688 7.51865 20.1247 7.50616L20.1133 9.07195ZM23.9596 9.87505C24.9765 10.3927 25.7074 11.0845 26.1886 11.9452L27.5554 11.181C26.9071 10.0213 25.9332 9.12254 24.67 8.47958L23.9596 9.87505ZM26.1886 11.9452C26.6792 12.8228 26.9306 13.8423 26.922 15.0259L28.4877 15.0371C28.4981 13.6167 28.1943 12.3239 27.5554 11.181L26.1886 11.9452ZM19.6606 18.3611C20.7346 18.3688 21.6888 18.1248 22.3691 17.4822L21.294 16.3439C21.0208 16.602 20.5315 16.8015 19.6721 16.7953L19.6606 18.3611ZM22.3691 17.4822C23.0396 16.8488 23.3315 15.9827 23.3387 15.0003L21.7729 14.9891C21.768 15.6638 21.5771 16.0766 21.294 16.3439L22.3691 17.4822ZM23.3387 15.0003C23.3459 14.0179 23.0667 13.1476 22.4055 12.5047L21.3139 13.6275C21.593 13.8989 21.7779 14.3143 21.7729 14.9891L23.3387 15.0003ZM22.4055 12.5047C21.7346 11.8524 20.7841 11.5948 19.7102 11.5871L19.6987 13.1529C20.5581 13.1591 21.0444 13.3655 21.3139 13.6275L22.4055 12.5047ZM19.7102 11.5871L16.9581 11.5674L16.9466 13.1332L19.6987 13.1529L19.7102 11.5871ZM16.1695 12.3447L16.1314 17.5529L17.6972 17.5641L17.7353 12.3559L16.1695 12.3447ZM16.9086 18.3414L19.6606 18.3611L19.6721 16.7953L16.92 16.7756L16.9086 18.3414ZM45.0517 14.4455L44.4677 14.9671L44.4719 14.9716L45.0517 14.4455ZM46.6599 29.2538L46.6541 30.0367L47.437 30.0423L47.4427 29.2594L46.6599 29.2538ZM41.6292 29.2178L40.8463 29.2122L40.8406 29.9951L41.6235 30.0007L41.6292 29.2178ZM40.8554 17.6707L40.2798 18.2015L40.8554 17.6707ZM36.2391 17.6377L36.8069 18.1766L36.2391 17.6377ZM35.2965 29.1724L35.2908 29.9553L36.0737 29.9609L36.0794 29.1781L35.2965 29.1724ZM30.2362 29.1362L29.4533 29.1306L29.4476 29.9135L30.2305 29.9191L30.2362 29.1362ZM30.3964 7.23808L30.4021 6.45519L29.6192 6.44958L29.6135 7.23248L30.3964 7.23808ZM35.4566 7.27431L36.2395 7.27992L36.2452 6.49702L35.4623 6.49142L35.4566 7.27431ZM35.401 14.8795L34.6181 14.8739L34.6 17.3497L36.0383 15.3342L35.401 14.8795ZM37.5148 13.1486L37.1761 12.4428L37.5148 13.1486ZM40.5027 13.3019C42.203 13.314 43.4973 13.8805 44.4678 14.9671L45.6357 13.9239C44.3361 12.4689 42.6016 11.751 40.5141 11.7361L40.5027 13.3019ZM44.4719 14.9716C45.4396 16.0382 45.9625 17.5479 45.9475 19.6012L47.5133 19.6124C47.5303 17.2861 46.9341 15.3549 45.6316 13.9193L44.4719 14.9716ZM45.9475 19.6012L45.877 29.2482L47.4427 29.2594L47.5133 19.6124L45.9475 19.6012ZM46.6656 28.4709L41.6349 28.4349L41.6235 30.0007L46.6541 30.0367L46.6656 28.4709ZM42.4121 29.2234L42.4777 20.257L40.9119 20.2458L40.8463 29.2122L42.4121 29.2234ZM42.4777 20.257C42.4867 19.0187 42.1718 17.9434 41.4311 17.14L40.2798 18.2015C40.6744 18.6294 40.919 19.2745 40.9119 20.2458L42.4777 20.257ZM41.4311 17.14C40.6934 16.34 39.7064 15.9622 38.5597 15.954L38.5482 17.5198C39.3348 17.5254 39.8821 17.7702 40.2798 18.2015L41.4311 17.14ZM38.5597 15.954C37.4129 15.9457 36.4205 16.3094 35.6712 17.0987L36.8069 18.1766C37.2108 17.751 37.7616 17.5141 38.5482 17.5198L38.5597 15.954ZM35.6712 17.0987C34.9189 17.8914 34.5882 18.9621 34.5792 20.2004L36.145 20.2117C36.1521 19.2404 36.4061 18.5989 36.8069 18.1766L35.6712 17.0987ZM34.5792 20.2004L34.5136 29.1668L36.0794 29.1781L36.145 20.2117L34.5792 20.2004ZM35.3022 28.3896L30.242 28.3533L30.2305 29.9191L35.2908 29.9553L35.3022 28.3896ZM31.0191 29.1418L31.1793 7.24369L29.6135 7.23248L29.4533 29.1306L31.0191 29.1418ZM30.3906 8.02098L35.4509 8.05721L35.4623 6.49142L30.4021 6.45519L30.3906 8.02098ZM34.6737 7.26871L34.6181 14.8739L36.1839 14.8851L36.2395 7.27992L34.6737 7.26871ZM36.0383 15.3342C36.4718 14.7267 37.0686 14.2312 37.8535 13.8544L37.1761 12.4428C36.1792 12.9213 35.3668 13.5797 34.7637 14.4248L36.0383 15.3342ZM37.8535 13.8544C38.6249 13.4841 39.5029 13.2947 40.5027 13.3019L40.5141 11.7361C39.3043 11.7274 38.1866 11.9577 37.1761 12.4428L37.8535 13.8544ZM53.3188 28.5025L52.9426 29.1891L52.947 29.1915L53.3188 28.5025ZM50.2925 25.5214L49.6092 25.9039L49.6137 25.9117L50.2925 25.5214ZM50.3876 16.5552L51.0606 16.9552L51.0633 16.9507L50.3876 16.5552ZM53.4871 13.5885L53.8488 14.2828L53.4871 13.5885ZM62.2463 13.6512L61.8745 14.3402L62.2463 13.6512ZM65.3021 16.662L64.6207 17.0478L64.6233 17.0523L65.3021 16.662ZM65.2069 25.6282L64.5358 25.2251L64.5339 25.2282L65.2069 25.6282ZM62.0781 28.5652L61.7207 27.8686L61.7164 27.8709L62.0781 28.5652ZM60.1869 24.1422L59.6295 23.5924L59.6216 23.6005L60.1869 24.1422ZM60.261 18.0464L59.68 18.5714L59.6879 18.5799L60.261 18.0464ZM55.3783 18.0115L55.9441 18.5527L55.9516 18.5446L55.3783 18.0115ZM55.3042 24.1072L54.7151 24.6232L54.7232 24.6321L55.3042 24.1072ZM57.6966 28.7866C56.1941 28.7759 54.8644 28.4467 53.6907 27.8134L52.947 29.1915C54.3672 29.9578 55.9523 30.34 57.6852 30.3524L57.6966 28.7866ZM53.695 27.8158C52.5466 27.1867 51.6413 26.2967 50.9712 25.1311L49.6137 25.9117C50.4242 27.3215 51.5366 28.4189 52.9426 29.1891L53.695 27.8158ZM50.9757 25.139C50.3316 23.9881 50.0016 22.6241 50.0134 21.0212L48.4476 21.01C48.4342 22.8398 48.8123 24.4797 49.6093 25.9039L50.9757 25.139ZM50.0134 21.0212C50.0249 19.4434 50.3822 18.0966 51.0606 16.9552L49.7147 16.1553C48.8751 17.5678 48.4609 19.1946 48.4476 21.01L50.0134 21.0212ZM51.0633 16.9507C51.7495 15.7786 52.675 14.8944 53.8488 14.2828L53.1254 12.8942C51.6849 13.6448 50.5441 14.7385 49.712 16.1597L51.0633 16.9507ZM53.8488 14.2828C55.0317 13.6663 56.366 13.3562 57.8686 13.367L57.88 11.8012C56.1472 11.7888 54.5567 12.1483 53.1254 12.8942L53.8488 14.2828ZM57.8686 13.367C59.3711 13.3778 60.7007 13.7069 61.8745 14.3402L62.6182 12.9622C61.1979 12.1959 59.6129 11.8136 57.88 11.8012L57.8686 13.367ZM61.8745 14.3402C63.0392 14.9687 63.9517 15.8659 64.6207 17.0478L65.9834 16.2762C65.1722 14.8433 64.0475 13.7333 62.6182 12.9622L61.8745 14.3402ZM64.6233 17.0523C65.285 18.2033 65.6225 19.555 65.611 21.1329L67.1768 21.1441C67.1901 19.3287 66.7997 17.6961 65.9808 16.2717L64.6233 17.0523ZM65.611 21.1329C65.5995 22.7068 65.2341 24.0628 64.5358 25.2251L65.878 26.0313C66.7376 24.6005 67.1635 22.9633 67.1768 21.1441L65.611 21.1329ZM64.5339 25.2282C63.8504 26.3781 62.9171 27.2546 61.7207 27.8687L62.4355 29.2617C63.8928 28.5137 65.0453 27.4322 65.8799 26.0282L64.5339 25.2282ZM61.7164 27.8709C60.5335 28.4873 59.1992 28.7974 57.6966 28.7866L57.6852 30.3524C59.418 30.3648 61.0085 30.0053 62.4398 29.2595L61.7164 27.8709ZM57.7172 25.9728C58.9018 25.9813 59.9289 25.5429 60.7521 24.6838L59.6216 23.6005C59.0929 24.1523 58.4774 24.4124 57.7286 24.407L57.7172 25.9728ZM60.7442 24.6919C61.6257 23.7983 62.0171 22.5627 62.0278 21.1072L60.462 21.096C60.4533 22.2841 60.1394 23.0755 59.6295 23.5924L60.7442 24.6919ZM62.0278 21.1072C62.0384 19.6574 61.678 18.4196 60.8341 17.5129L59.6879 18.5799C60.1751 19.1033 60.4707 19.9022 60.462 21.096L62.0278 21.1072ZM60.842 17.5215C60.0485 16.6432 59.0333 16.1893 57.848 16.1808L57.8365 17.7466C58.5846 17.752 59.1819 18.0199 59.68 18.5713L60.842 17.5215ZM57.848 16.1808C56.6481 16.1722 55.6148 16.6078 54.8051 17.4783L55.9516 18.5446C56.4543 18.0041 57.0636 17.7411 57.8365 17.7466L57.848 16.1808ZM54.8126 17.4703C53.9703 18.3508 53.6073 19.5884 53.5966 21.0468L55.1624 21.0581C55.1714 19.8334 55.4742 19.0438 55.944 18.5526L54.8126 17.4703ZM53.5966 21.0468C53.5861 22.4854 53.9208 23.7163 54.7152 24.6232L55.8931 23.5913C55.4353 23.0686 55.1536 22.2631 55.1624 21.0581L53.5966 21.0468ZM54.7232 24.6321C55.5167 25.5104 56.5319 25.9643 57.7172 25.9728L57.7286 24.407C56.9806 24.4017 56.3833 24.1337 55.8851 23.5823L54.7232 24.6321ZM83.804 14.7229L83.2199 15.2446L83.2286 15.254L83.804 14.7229ZM85.4417 29.5315L85.436 30.3144L86.2189 30.32L86.2246 29.5371L85.4417 29.5315ZM80.411 29.4955L79.6281 29.4899L79.6224 30.2727L80.4053 30.2784L80.411 29.4955ZM79.6373 17.9484L79.0616 18.4791L79.6373 17.9484ZM75.0209 17.9154L75.5887 18.4543L75.0209 17.9154ZM74.0783 29.4501L74.0726 30.233L74.8555 30.2386L74.8612 29.4557L74.0783 29.4501ZM69.0181 29.4139L68.2352 29.4083L68.2295 30.1912L69.0124 30.1968L69.0181 29.4139ZM69.1388 12.9015L69.1446 12.1186L68.3617 12.113L68.3559 12.8959L69.1388 12.9015ZM74.1991 12.9377L74.982 12.9433L74.9877 12.1604L74.2048 12.1548L74.1991 12.9377ZM74.1831 15.1276L73.4002 15.1219L73.3821 17.5978L74.8203 15.5823L74.1831 15.1276ZM76.2671 13.426L76.5991 14.135L76.6056 14.132L76.6121 14.1288L76.2671 13.426ZM79.1957 13.5789C80.941 13.5914 82.2528 14.1616 83.22 15.2445L84.3879 14.2014C83.0851 12.7427 81.3286 12.0283 79.2072 12.0131L79.1957 13.5789ZM83.2286 15.254C84.2134 16.321 84.7443 17.8289 84.7294 19.8789L86.2951 19.8901C86.3122 17.5604 85.7042 15.6273 84.3793 14.1919L83.2286 15.254ZM84.7294 19.8789L84.6588 29.5259L86.2246 29.5371L86.2951 19.8901L84.7294 19.8789ZM85.4474 28.7486L80.4168 28.7126L80.4053 30.2784L85.436 30.3144L85.4474 28.7486ZM81.1939 29.5011L81.2595 20.5347L79.6937 20.5235L79.6281 29.4899L81.1939 29.5011ZM81.2595 20.5347C81.2686 19.2964 80.9536 18.221 80.2129 17.4177L79.0616 18.4791C79.4562 18.9071 79.7008 19.5522 79.6937 20.5235L81.2595 20.5347ZM80.2129 17.4177C79.4753 16.6176 78.4883 16.2398 77.3415 16.2316L77.3301 17.7974C78.1167 17.803 78.664 18.0478 79.0616 18.4791L80.2129 17.4177ZM77.3415 16.2316C76.1948 16.2234 75.2023 16.587 74.4531 17.3764L75.5887 18.4543C75.9926 18.0287 76.5435 17.7918 77.3301 17.7974L77.3415 16.2316ZM74.4531 17.3764C73.7007 18.1691 73.3701 19.2398 73.361 20.4781L74.9268 20.4893C74.9339 19.5181 75.1879 18.8766 75.5887 18.4543L74.4531 17.3764ZM73.361 20.4781L73.2954 29.4445L74.8612 29.4557L74.9268 20.4893L73.361 20.4781ZM74.0841 28.6672L69.0238 28.631L69.0124 30.1968L74.0726 30.233L74.0841 28.6672ZM69.801 29.4195L69.9217 12.9071L68.3559 12.8959L68.2352 29.4083L69.801 29.4195ZM69.1331 13.6844L74.1934 13.7206L74.2048 12.1548L69.1446 12.1186L69.1331 13.6844ZM73.4162 12.9321L73.4002 15.1219L74.966 15.1332L74.982 12.9433L73.4162 12.9321ZM74.8203 15.5823C75.2543 14.9741 75.8401 14.4906 76.5991 14.135L75.935 12.7171C74.9519 13.1777 74.1483 13.8285 73.5458 14.6728L74.8203 15.5823ZM76.6121 14.1288C77.3619 13.7606 78.2177 13.5719 79.1957 13.5789L79.2072 12.0131C78.0151 12.0046 76.9147 12.2359 75.9221 12.7233L76.6121 14.1288ZM104.486 22.6245L104.481 23.4074L105.178 23.4124L105.263 22.7199L104.486 22.6245ZM93.0341 22.5426L93.0398 21.7597L92.1944 21.7536L92.2531 22.597L93.0341 22.5426ZM93.9933 24.9169L93.4454 25.4762L93.4552 25.4858L93.4653 25.4951L93.9933 24.9169ZM98.7931 24.1522L98.7988 23.3694L98.2985 23.3658L98.085 23.8182L98.7931 24.1522ZM104.179 24.1908L104.936 24.3894L105.192 23.4151L104.185 23.4079L104.179 24.1908ZM102.648 27.1096L102.053 26.6014L102.046 26.6095L102.648 27.1096ZM99.9404 29.1322L100.259 29.8472L99.9404 29.1322ZM91.9823 28.7793L91.6016 29.4635L91.9823 28.7793ZM89.0447 25.7989L89.7324 25.4245L89.0447 25.7989ZM89.0809 16.8027L88.3988 16.4184L88.3943 16.4266L89.0809 16.8027ZM92.0618 13.8647L92.4324 14.5542L92.0618 13.8647ZM100.673 13.8967L100.296 14.583L100.673 13.8967ZM103.552 16.7879L102.865 17.1632L102.87 17.1715L103.552 16.7879ZM99.417 19.7769L99.4112 20.5598L100.194 20.5654L100.2 19.7825L99.417 19.7769ZM98.5443 17.6991L99.0614 17.1111L98.5443 17.6991ZM94.1649 17.6381L93.6681 17.033L93.6581 17.0415L94.1649 17.6381ZM93.0842 19.7315L92.3111 19.6082L92.1675 20.5079L93.0785 20.5144L93.0842 19.7315ZM103.803 21.14C103.8 21.5809 103.769 22.0439 103.709 22.5292L105.263 22.7199C105.33 22.1802 105.365 21.6572 105.369 21.1512L103.803 21.14ZM104.492 21.8416L93.0398 21.7597L93.0284 23.3254L104.481 23.4074L104.492 21.8416ZM92.2531 22.597C92.3338 23.757 92.7042 24.7501 93.4454 25.4762L94.5412 24.3576C94.1463 23.9707 93.8772 23.381 93.8151 22.4881L92.2531 22.597ZM93.4653 25.4951C94.206 26.1714 95.1141 26.5069 96.142 26.5143L96.1534 24.9485C95.4847 24.9437 94.9566 24.7362 94.5213 24.3387L93.4653 25.4951ZM96.142 26.5143C96.8837 26.5196 97.5679 26.3674 98.1572 26.0156C98.7502 25.6616 99.1941 25.1371 99.5011 24.4862L98.085 23.8182C97.8911 24.2292 97.6436 24.4987 97.3548 24.6711C97.0623 24.8457 96.6743 24.9522 96.1534 24.9485L96.142 26.5143ZM98.7874 24.9351L104.173 24.9737L104.185 23.4079L98.7988 23.3694L98.7874 24.9351ZM103.422 23.9923C103.168 24.9597 102.713 25.8271 102.053 26.6015L103.244 27.6178C104.056 26.6665 104.622 25.588 104.936 24.3894L103.422 23.9923ZM102.046 26.6095C101.411 27.3743 100.608 27.9775 99.6217 28.4171L100.259 29.8472C101.451 29.316 102.452 28.5709 103.251 27.6097L102.046 26.6095ZM99.6217 28.4171C98.6472 28.8517 97.5447 29.0719 96.3009 29.063L96.2895 30.6288C97.7287 30.6391 99.0563 30.3836 100.259 29.8472L99.6217 28.4171ZM96.3009 29.063C94.7979 29.0523 93.4921 28.7232 92.363 28.0951L91.6016 29.4635C92.9876 30.2344 94.557 30.6164 96.2895 30.6288L96.3009 29.063ZM92.363 28.0951C91.2376 27.4691 90.3637 26.5842 89.7324 25.4245L88.3571 26.1733C89.1274 27.5884 90.212 28.6905 91.6016 29.4635L92.363 28.0951ZM89.7324 25.4245C89.1051 24.2721 88.7835 22.9053 88.7952 21.2989L87.2294 21.2877C87.2161 23.1139 87.5827 24.7508 88.3571 26.1733L89.7324 25.4245ZM88.7952 21.2989C88.807 19.6889 89.1402 18.3238 89.7675 17.1788L88.3943 16.4266C87.622 17.8363 87.2427 19.4649 87.2294 21.2877L88.7952 21.2989ZM89.763 17.1869C90.4112 16.0363 91.298 15.1641 92.4324 14.5542L91.6912 13.1751C90.2903 13.9281 89.1898 15.0145 88.3988 16.4185L89.763 17.1869ZM92.4324 14.5542C93.5693 13.9431 94.8892 13.6321 96.4137 13.643L96.4251 12.0772C94.6747 12.0647 93.0896 12.4233 91.6912 13.1751L92.4324 14.5542ZM96.4137 13.643C97.8991 13.6536 99.1865 13.9737 100.296 14.583L101.05 13.2104C99.6842 12.4605 98.1356 12.0894 96.4251 12.0772L96.4137 13.643ZM100.296 14.583C101.402 15.1902 102.255 16.0456 102.865 17.1632L104.239 16.4126C103.487 15.0346 102.42 13.9625 101.05 13.2104L100.296 14.583ZM102.87 17.1715C103.494 18.283 103.814 19.5973 103.803 21.14L105.369 21.1512C105.382 19.3795 105.013 17.7887 104.235 16.4044L102.87 17.1715ZM100.2 19.7825C100.208 18.715 99.8397 17.7955 99.0614 17.1111L98.0273 18.287C98.4252 18.6369 98.639 19.1027 98.6341 19.7713L100.2 19.7825ZM99.0614 17.1111C98.313 16.4529 97.3856 16.1384 96.3363 16.1309L96.3248 17.6967C97.0511 17.7019 97.5995 17.9109 98.0273 18.287L99.0614 17.1111ZM96.3363 16.1309C95.3246 16.1236 94.4197 16.4159 93.6681 17.0331L94.6617 18.2431C95.101 17.8824 95.6399 17.6918 96.3248 17.6967L96.3363 16.1309ZM93.6581 17.0415C92.911 17.6762 92.4787 18.5586 92.3111 19.6082L93.8574 19.8548C93.9793 19.0914 94.2674 18.5783 94.6718 18.2347L93.6581 17.0415ZM93.0785 20.5144L99.4112 20.5598L99.4227 18.994L93.09 18.9486L93.0785 20.5144ZM127.14 9.05529L127.922 9.0609L127.928 8.278L127.145 8.2724L127.14 9.05529ZM127.11 13.1094L127.104 13.8923L127.887 13.8979L127.893 13.115L127.11 13.1094ZM118.647 13.0488L118.652 12.2659L117.869 12.2603L117.864 13.0432L118.647 13.0488ZM118.615 17.4284L117.832 17.4228L117.826 18.2057L118.609 18.2113L118.615 17.4284ZM124.947 17.4738L125.73 17.4794L125.736 16.6965L124.953 16.6909L124.947 17.4738ZM124.918 21.4095L124.913 22.1924L125.696 22.198L125.701 21.4151L124.918 21.4095ZM118.586 21.3642L118.591 20.5813L117.809 20.5757L117.803 21.3586L118.586 21.3642ZM118.524 29.7683L118.519 30.5512L119.301 30.5568L119.307 29.7739L118.524 29.7683ZM113.464 29.7321L112.681 29.7265L112.675 30.5094L113.458 30.515L113.464 29.7321ZM113.616 8.95847L113.622 8.17557L112.839 8.16997L112.833 8.95286L113.616 8.95847ZM126.357 9.04969L126.327 13.1038L127.893 13.115L127.922 9.0609L126.357 9.04969ZM127.116 12.3265L118.652 12.2659L118.641 13.8317L127.104 13.8923L127.116 12.3265ZM117.864 13.0432L117.832 17.4228L119.397 17.434L119.429 13.0544L117.864 13.0432ZM118.609 18.2113L124.942 18.2567L124.953 16.6909L118.62 16.6455L118.609 18.2113ZM124.164 17.4682L124.136 21.4039L125.701 21.4151L125.73 17.4794L124.164 17.4682ZM124.924 20.6266L118.591 20.5813L118.58 22.1471L124.913 22.1924L124.924 20.6266ZM117.803 21.3586L117.741 29.7627L119.307 29.7739L119.369 21.3698L117.803 21.3586ZM118.53 28.9854L113.47 28.9492L113.458 30.515L118.519 30.5512L118.53 28.9854ZM114.247 29.7377L114.399 8.96407L112.833 8.95286L112.681 29.7265L114.247 29.7377ZM113.61 9.74136L127.134 9.83819L127.145 8.2724L113.622 8.17557L113.61 9.74136ZM129.681 17.0934L128.986 16.7339L128.981 16.7425L129.681 17.0934ZM132.337 14.153L132.747 14.8199L132.337 14.153ZM139.086 13.8758L138.706 14.5605L138.713 14.564L139.086 13.8758ZM141.114 15.7547L140.444 16.1603L141.877 18.5263L141.897 15.7603L141.114 15.7547ZM141.131 13.417L141.137 12.6341L140.354 12.6285L140.348 13.4113L141.131 13.417ZM146.192 13.4532L146.974 13.4588L146.98 12.6759L146.197 12.6703L146.192 13.4532ZM146.071 29.9656L146.065 30.7485L146.848 30.7541L146.854 29.9712L146.071 29.9656ZM141.011 29.9293L140.228 29.9237L140.222 30.7066L141.005 30.7122L141.011 29.9293ZM141.028 27.5916L141.811 27.5972L141.83 24.9251L140.372 27.1643L141.028 27.5916ZM138.943 29.441L138.579 28.7476L138.573 28.751L138.943 29.441ZM132.228 29.0674L131.799 29.723L131.808 29.7283L132.228 29.0674ZM129.616 26.0598L128.909 26.3963L128.912 26.4028L128.915 26.4092L129.616 26.0598ZM140.028 18.6767L139.455 19.2107L139.462 19.2187L140.028 18.6767ZM134.908 18.6401L134.351 18.0901L134.351 18.0903L134.908 18.6401ZM134.864 24.6177L134.285 25.1439L134.292 25.1519L134.299 25.1596L134.864 24.6177ZM139.984 24.6543L139.427 24.1043L139.419 24.1122L139.984 24.6543ZM129.485 21.5606C129.496 19.9616 129.803 18.5965 130.381 17.4442L128.981 16.7425C128.278 18.1458 127.932 19.7551 127.919 21.5494L129.485 21.5606ZM130.377 17.4528C130.979 16.2881 131.771 15.4202 132.747 14.8199L131.927 13.4861C130.683 14.2509 129.705 15.3433 128.986 16.734L130.377 17.4528ZM132.747 14.8199C133.726 14.2177 134.816 13.9179 136.038 13.9267L136.049 12.3609C134.548 12.3501 133.167 12.7232 131.927 13.4861L132.747 14.8199ZM136.038 13.9267C137.094 13.9342 137.975 14.1547 138.706 14.5604L139.466 13.1912C138.468 12.6376 137.321 12.37 136.049 12.3609L136.038 13.9267ZM138.713 14.564C139.489 14.9853 140.057 15.5194 140.444 16.1603L141.784 15.3492C141.236 14.4445 140.452 13.726 139.46 13.1877L138.713 14.564ZM141.897 15.7603L141.914 13.4226L140.348 13.4113L140.331 15.7491L141.897 15.7603ZM141.126 14.1998L146.186 14.2361L146.197 12.6703L141.137 12.6341L141.126 14.1998ZM145.409 13.4476L145.288 29.96L146.854 29.9712L146.974 13.4588L145.409 13.4476ZM146.077 29.1827L141.016 29.1464L141.005 30.7122L146.065 30.7485L146.077 29.1827ZM141.793 29.9349L141.811 27.5972L140.245 27.586L140.228 29.9237L141.793 29.9349ZM140.372 27.1643C139.953 27.8068 139.364 28.3363 138.579 28.7476L139.306 30.1345C140.304 29.6115 141.105 28.908 141.684 28.0188L140.372 27.1643ZM138.573 28.751C137.836 29.1463 136.951 29.3541 135.895 29.3465L135.884 30.9123C137.155 30.9214 138.307 30.6703 139.312 30.131L138.573 28.751ZM135.895 29.3465C134.696 29.3379 133.619 29.0238 132.647 28.4065L131.808 29.7283C133.035 30.5078 134.4 30.9017 135.884 30.9123L135.895 29.3465ZM132.656 28.4119C131.683 27.7769 130.902 26.8851 130.316 25.7104L128.915 26.4092C129.613 27.8084 130.573 28.9217 131.799 29.7229L132.656 28.4119ZM130.323 25.7233C129.76 24.5404 129.473 23.1592 129.485 21.5606L127.919 21.5494C127.906 23.344 128.228 24.9659 128.909 26.3963L130.323 25.7233ZM141.854 21.6787C141.864 20.2638 141.471 19.0504 140.593 18.1348L139.462 19.2187C139.994 19.7731 140.296 20.5573 140.288 21.6675L141.854 21.6787ZM140.6 18.1428C139.768 17.2503 138.717 16.7894 137.496 16.7807L137.485 18.3465C138.276 18.3521 138.917 18.6334 139.455 19.2106L140.6 18.1428ZM137.496 16.7807C136.276 16.772 135.213 17.2169 134.351 18.0901L135.465 19.19C136.034 18.6135 136.693 18.3408 137.485 18.3465L137.496 16.7807ZM134.351 18.0903C133.476 18.9776 133.078 20.1783 133.068 21.5862L134.634 21.5975C134.642 20.4802 134.949 19.7131 135.465 19.1898L134.351 18.0903ZM133.068 21.5862C133.057 22.9963 133.438 24.2111 134.285 25.1439L135.444 24.0914C134.921 23.515 134.625 22.7126 134.634 21.5975L133.068 21.5862ZM134.299 25.1596C135.148 26.0451 136.205 26.5052 137.425 26.5139L137.437 24.9481C136.645 24.9424 135.99 24.6603 135.429 24.0757L134.299 25.1596ZM137.425 26.5139C138.646 26.5226 139.704 26.0769 140.549 25.1964L139.419 24.1122C138.872 24.6817 138.228 24.9538 137.437 24.9481L137.425 26.5139ZM140.541 25.2043C141.432 24.3013 141.844 23.0937 141.854 21.6787L140.288 21.6675C140.28 22.7778 139.966 23.5576 139.427 24.1043L140.541 25.2043ZM149.855 17.2378L149.172 16.8536L149.168 16.8617L149.855 17.2378ZM152.806 14.2996L152.435 13.61L152.431 13.6125L152.806 14.2996ZM162.301 14.9594L161.812 15.5716L161.817 15.5749L162.301 14.9594ZM165.019 19.5659L165.013 20.3488L165.987 20.3558L165.785 19.4032L165.019 19.5659ZM159.633 19.5273L158.895 19.7868L159.077 20.3063L159.628 20.3102L159.633 19.5273ZM154.786 18.6936L155.401 19.1787L155.407 19.1705L154.786 18.6936ZM154.741 24.8783L154.113 25.3464L154.119 25.3546L154.741 24.8783ZM159.6 24.0845L159.606 23.3016L159.055 23.2977L158.865 23.8145L159.6 24.0845ZM164.986 24.1231L165.748 24.3L165.97 23.3472L164.991 23.3402L164.986 24.1231ZM162.2 28.6606L161.72 28.0424L162.2 28.6606ZM152.697 29.214L152.312 29.8956L152.316 29.8982L152.697 29.214ZM149.789 26.2338L149.097 26.6001L149.101 26.6082L149.789 26.2338ZM149.569 21.734C149.581 20.1241 149.914 18.759 150.541 17.6139L149.168 16.8617C148.396 18.2714 148.016 19.9 148.003 21.7228L149.569 21.734ZM150.537 17.622C151.187 16.4683 152.066 15.5957 153.181 14.9867L152.431 13.6125C151.05 14.3666 149.962 15.4528 149.172 16.8536L150.537 17.622ZM153.176 14.9891C154.315 14.3773 155.625 14.0669 157.128 14.0777L157.14 12.5119C155.407 12.4995 153.832 12.859 152.435 13.61L153.176 14.9891ZM157.128 14.0777C159.057 14.0915 160.6 14.6048 161.812 15.5716L162.789 14.3473C161.255 13.1242 159.354 12.5277 157.14 12.5119L157.128 14.0777ZM161.817 15.5749C163.045 16.541 163.866 17.9054 164.253 19.7286L165.785 19.4032C165.333 17.2746 164.341 15.568 162.785 14.3439L161.817 15.5749ZM165.025 18.783L159.639 18.7444L159.628 20.3102L165.013 20.3488L165.025 18.783ZM160.372 19.2678C160.11 18.5217 159.699 17.9 159.107 17.4674C158.512 17.0335 157.8 16.8373 157.019 16.8317L157.008 18.3975C157.529 18.4012 157.904 18.5284 158.183 18.7321C158.464 18.9372 158.712 19.2671 158.895 19.7868L160.372 19.2678ZM157.019 16.8317C155.85 16.8233 154.875 17.2933 154.165 18.2167L155.407 19.1705C155.813 18.642 156.322 18.3926 157.008 18.3975L157.019 16.8317ZM154.172 18.2085C153.465 19.1041 153.163 20.3258 153.152 21.7596L154.718 21.7709C154.727 20.5216 154.992 19.6956 155.401 19.1787L154.172 18.2085ZM153.152 21.7596C153.142 23.1955 153.426 24.4251 154.113 25.3463L155.369 24.4104C154.961 23.8638 154.709 23.018 154.718 21.7709L153.152 21.7596ZM154.119 25.3546C154.819 26.2672 155.787 26.7341 156.947 26.7424L156.958 25.1767C156.264 25.1717 155.757 24.9178 155.362 24.4021L154.119 25.3546ZM156.947 26.7424C157.728 26.748 158.443 26.562 159.043 26.1367C159.642 25.7127 160.062 25.0969 160.335 24.3546L158.865 23.8145C158.675 24.3315 158.422 24.6579 158.138 24.8589C157.857 25.0586 157.479 25.1804 156.958 25.1767L156.947 26.7424ZM159.594 24.8674L164.98 24.906L164.991 23.3402L159.606 23.3016L159.594 24.8674ZM164.223 23.9461C163.811 25.7219 162.971 27.0703 161.72 28.0424L162.681 29.2787C164.247 28.0613 165.264 26.3848 165.748 24.3L164.223 23.9461ZM161.72 28.0424C160.471 29.0133 158.919 29.5114 157.015 29.4977L157.004 31.0635C159.204 31.0793 161.113 30.4973 162.681 29.2787L161.72 28.0424ZM157.015 29.4977C155.512 29.487 154.207 29.1579 153.077 28.5298L152.316 29.8982C153.702 30.6691 155.271 31.0511 157.004 31.0635L157.015 29.4977ZM153.082 28.5323C151.976 27.9073 151.109 27.0223 150.476 25.8594L149.101 26.6082C149.87 28.0201 150.942 29.1218 152.312 29.8956L153.082 28.5323ZM150.481 25.8676C149.87 24.7136 149.557 23.3439 149.569 21.734L148.003 21.7228C147.99 23.5455 148.345 25.1794 149.097 26.6L150.481 25.8676ZM176.883 25.8951L177.666 25.9007L177.672 25.1178L176.889 25.1122L176.883 25.8951ZM176.852 30.1859L176.846 30.9688L177.629 30.9744L177.635 30.1916L176.852 30.1859ZM169.996 28.8051L169.473 29.3879L169.48 29.3935L169.996 28.8051ZM168.538 17.8155L169.321 17.8211L169.326 17.0382L168.544 17.0326L168.538 17.8155ZM166.526 17.8011L165.743 17.7955L165.737 18.5784L166.52 18.584L166.526 17.8011ZM166.556 13.599L166.562 12.8161L165.779 12.8105L165.773 13.5934L166.556 13.599ZM168.569 13.6134L168.563 14.3963L169.346 14.4019L169.351 13.619L168.569 13.6134ZM168.598 9.58888L168.604 8.80598L167.821 8.80037L167.815 9.58327L168.598 9.58888ZM173.658 9.62511L174.441 9.63071L174.447 8.84781L173.664 8.84221L173.658 9.62511ZM173.629 13.6496L172.846 13.644L172.84 14.4269L173.623 14.4325L173.629 13.6496ZM176.943 13.6734L177.726 13.679L177.732 12.8961L176.949 12.8905L176.943 13.6734ZM176.912 17.8754L176.907 18.6583L177.69 18.6639L177.695 17.881L176.912 17.8754ZM173.598 17.8517L173.604 17.0688L172.821 17.0632L172.815 17.8461L173.598 17.8517ZM173.897 25.5482L173.364 26.1215L173.897 25.5482ZM176.1 25.8895L176.069 30.1803L177.635 30.1916L177.666 25.9007L176.1 25.8895ZM176.858 29.4031L174.283 29.3846L174.272 30.9504L176.846 30.9688L176.858 29.4031ZM174.283 29.3846C172.57 29.3724 171.348 28.9499 170.513 28.2168L169.48 29.3935C170.684 30.4506 172.316 30.9364 174.272 30.9504L174.283 29.3846ZM170.519 28.2225C169.734 27.5178 169.259 26.308 169.273 24.3905L167.707 24.3793C167.691 26.5258 168.22 28.2629 169.473 29.3878L170.519 28.2225ZM169.273 24.3905L169.321 17.8211L167.755 17.8099L167.707 24.3793L169.273 24.3905ZM168.544 17.0326L166.531 17.0182L166.52 18.584L168.532 18.5984L168.544 17.0326ZM167.308 17.8067L167.339 13.6046L165.773 13.5934L165.743 17.7955L167.308 17.8067ZM166.551 14.3819L168.563 14.3963L168.574 12.8305L166.562 12.8161L166.551 14.3819ZM169.351 13.619L169.381 9.59448L167.815 9.58327L167.786 13.6078L169.351 13.619ZM168.592 10.3718L173.652 10.408L173.664 8.84221L168.604 8.80598L168.592 10.3718ZM172.875 9.6195L172.846 13.644L174.412 13.6552L174.441 9.63071L172.875 9.6195ZM173.623 14.4325L176.937 14.4563L176.949 12.8905L173.635 12.8667L173.623 14.4325ZM176.16 13.6678L176.129 17.8698L177.695 17.881L177.726 13.679L176.16 13.6678ZM176.918 17.0925L173.604 17.0688L173.592 18.6346L176.907 18.6583L176.918 17.0925ZM172.815 17.8461L172.767 24.4747L174.332 24.4859L174.381 17.8573L172.815 17.8461ZM172.767 24.4747C172.762 25.0707 172.899 25.6891 173.364 26.1215L174.43 24.9749C174.425 24.9699 174.33 24.8763 174.332 24.4859L172.767 24.4747ZM173.364 26.1215C173.815 26.5414 174.454 26.6606 175.072 26.6651L175.084 25.0993C174.598 25.0958 174.449 24.9924 174.43 24.9749L173.364 26.1215ZM175.072 26.6651L176.878 26.678L176.889 25.1122L175.084 25.0993L175.072 26.6651ZM182.813 29.4296L182.437 30.1163L182.441 30.1186L182.813 29.4296ZM179.787 26.4486L179.104 26.831L179.108 26.8389L179.787 26.4486ZM179.882 17.4824L180.555 17.8824L180.558 17.8779L179.882 17.4824ZM182.981 14.5156L183.343 15.2099L182.981 14.5156ZM191.741 14.5783L191.369 15.2674L191.741 14.5783ZM194.796 17.5892L194.115 17.975L194.118 17.9795L194.796 17.5892ZM194.701 26.5554L194.03 26.1522L194.028 26.1554L194.701 26.5554ZM191.572 29.4923L191.215 28.7958L191.211 28.798L191.572 29.4923ZM189.681 25.0693L189.124 24.5195L189.116 24.5277L189.681 25.0693ZM189.755 18.9736L189.174 19.4985L189.182 19.507L189.755 18.9736ZM184.873 18.9386L185.438 19.4798L185.446 19.4718L184.873 18.9386ZM184.799 25.0344L184.21 25.5504L184.218 25.5593L184.799 25.0344ZM187.191 29.7138C185.688 29.703 184.359 29.3739 183.185 28.7406L182.441 30.1186C183.862 30.8849 185.447 31.2672 187.18 31.2796L187.191 29.7138ZM183.189 28.7429C182.041 28.1138 181.136 27.2239 180.466 26.0583L179.108 26.8389C179.919 28.2486 181.031 29.346 182.437 30.1163L183.189 28.7429ZM180.47 26.0661C179.826 24.9152 179.496 23.5512 179.508 21.9483L177.942 21.9371C177.929 23.7669 178.307 25.4068 179.104 26.831L180.47 26.0661ZM179.508 21.9483C179.519 20.3705 179.877 19.0238 180.555 17.8823L179.209 17.0824C178.369 18.4949 177.955 20.1217 177.942 21.9371L179.508 21.9483ZM180.558 17.8779C181.244 16.7057 182.169 15.8216 183.343 15.2099L182.62 13.8213C181.179 14.572 180.038 15.6657 179.206 17.0869L180.558 17.8779ZM183.343 15.2099C184.526 14.5935 185.86 14.2834 187.363 14.2941L187.374 12.7284C185.642 12.7159 184.051 13.0754 182.62 13.8213L183.343 15.2099ZM187.363 14.2941C188.865 14.3049 190.195 14.6341 191.369 15.2674L192.113 13.8893C190.692 13.123 189.107 12.7408 187.374 12.7284L187.363 14.2941ZM191.369 15.2674C192.534 15.8958 193.446 16.7931 194.115 17.9749L195.478 17.2034C194.667 15.7704 193.542 14.6605 192.113 13.8893L191.369 15.2674ZM194.118 17.9795C194.779 19.1305 195.117 20.4822 195.105 22.06L196.671 22.0712C196.684 20.2558 196.294 18.6233 195.475 17.1989L194.118 17.9795ZM195.105 22.06C195.094 23.634 194.728 24.99 194.03 26.1522L195.372 26.9585C196.232 25.5277 196.658 23.8905 196.671 22.0712L195.105 22.06ZM194.028 26.1554C193.345 27.3053 192.411 28.1817 191.215 28.7958L191.93 30.1888C193.387 29.4409 194.54 28.3593 195.374 26.9553L194.028 26.1554ZM191.211 28.798C190.028 29.4145 188.694 29.7245 187.191 29.7138L187.18 31.2796C188.912 31.292 190.503 30.9325 191.934 30.1866L191.211 28.798ZM187.212 26.8999C188.396 26.9084 189.423 26.47 190.246 25.611L189.116 24.5277C188.587 25.0794 187.972 25.3395 187.223 25.3342L187.212 26.8999ZM190.239 25.6191C191.12 24.7255 191.511 23.4899 191.522 22.0344L189.956 22.0231C189.948 23.2112 189.634 24.0027 189.124 24.5196L190.239 25.6191ZM191.522 22.0344C191.533 20.5846 191.172 19.3467 190.329 18.4401L189.182 19.507C189.67 20.0305 189.965 20.8294 189.956 22.0231L191.522 22.0344ZM190.336 18.4487C189.543 17.5704 188.528 17.1165 187.342 17.108L187.331 18.6738C188.079 18.6791 188.676 18.947 189.174 19.4985L190.336 18.4487ZM187.342 17.108C186.142 17.0994 185.109 17.5349 184.299 18.4055L185.446 19.4718C185.949 18.9312 186.558 18.6682 187.331 18.6738L187.342 17.108ZM184.307 18.3975C183.465 19.278 183.102 20.5156 183.091 21.974L184.657 21.9852C184.666 20.7606 184.969 19.9709 185.438 19.4798L184.307 18.3975ZM183.091 21.974C183.08 23.4126 183.415 24.6435 184.21 25.5503L185.387 24.5184C184.93 23.9958 184.648 23.1902 184.657 21.9852L183.091 21.974ZM184.218 25.5593C185.011 26.4376 186.026 26.8915 187.212 26.8999L187.223 25.3342C186.475 25.3288 185.878 25.0609 185.38 24.5095L184.218 25.5593ZM203.673 16.6169L202.89 16.6113L202.871 19.245L204.326 17.0493L203.673 16.6169ZM205.908 14.5022L206.295 15.183L206.306 15.1764L205.908 14.5022ZM208.873 13.7244L209.656 13.73L209.662 12.9471L208.879 12.9415L208.873 13.7244ZM208.834 19.0806L208.828 19.8635L209.611 19.8691L209.617 19.0862L208.834 19.0806ZM204.596 19.8789L205.097 20.4809L205.108 20.4717L204.596 19.8789ZM203.573 30.3773L203.567 31.1602L204.35 31.1658L204.356 30.3829L203.573 30.3773ZM198.512 30.341L197.73 30.3354L197.724 31.1183L198.507 31.1239L198.512 30.341ZM198.633 13.8287L198.639 13.0458L197.856 13.0402L197.85 13.823L198.633 13.8287ZM203.693 13.8649L204.476 13.8705L204.482 13.0876L203.699 13.082L203.693 13.8649ZM204.326 17.0493C204.86 16.2426 205.516 15.6253 206.295 15.1829L205.522 13.8215C204.517 14.3923 203.683 15.1848 203.021 16.1846L204.326 17.0493ZM206.306 15.1764C207.07 14.7258 207.917 14.5005 208.868 14.5073L208.879 12.9415C207.659 12.9328 206.53 13.226 205.51 13.828L206.306 15.1764ZM208.09 13.7188L208.051 19.075L209.617 19.0862L209.656 13.73L208.09 13.7188ZM208.84 18.2977L207.449 18.2877L207.438 19.8535L208.828 19.8635L208.84 18.2977ZM207.449 18.2877C206.09 18.278 204.922 18.5648 204.085 19.286L205.108 20.4717C205.542 20.0972 206.272 19.8452 207.438 19.8535L207.449 18.2877ZM204.096 19.2769C203.196 20.0255 202.856 21.2613 202.846 22.7073L204.412 22.7185C204.421 21.4421 204.727 20.7885 205.097 20.4808L204.096 19.2769ZM202.846 22.7073L202.79 30.3717L204.356 30.3829L204.412 22.7185L202.846 22.7073ZM203.578 29.5944L198.518 29.5581L198.507 31.1239L203.567 31.1602L203.578 29.5944ZM199.295 30.3466L199.416 13.8343L197.85 13.823L197.73 30.3354L199.295 30.3466ZM198.627 14.6115L203.688 14.6478L203.699 13.082L198.639 13.0458L198.627 14.6115ZM202.911 13.8593L202.89 16.6113L204.456 16.6225L204.476 13.8705L202.911 13.8593ZM228.158 14.04L228.876 14.3516L229.348 13.2656L228.164 13.2571L228.158 14.04ZM217.623 38.3202L217.617 39.1031L218.135 39.1068L218.341 38.6317L217.623 38.3202ZM212.178 38.2812L211.467 37.9544L210.961 39.0554L212.172 39.0641L212.178 38.2812ZM216.027 29.9042L216.739 30.231L216.881 29.9209L216.751 29.6055L216.027 29.9042ZM209.426 13.9059L209.432 13.123L208.253 13.1146L208.703 14.2046L209.426 13.9059ZM215.079 13.9464L215.815 13.6802L215.63 13.1674L215.084 13.1635L215.079 13.9464ZM218.82 24.3014L218.084 24.5675L218.807 26.5672L219.553 24.5762L218.82 24.3014ZM222.684 14.0008L222.689 13.218L222.143 13.214L221.951 13.726L222.684 14.0008ZM227.44 13.7285L216.905 38.0086L218.341 38.6317L228.876 14.3516L227.44 13.7285ZM217.629 37.5373L212.184 37.4983L212.172 39.0641L217.617 39.1031L217.629 37.5373ZM212.889 38.608L216.739 30.231L215.316 29.5774L211.467 37.9544L212.889 38.608ZM216.751 29.6055L210.15 13.6072L208.703 14.2046L215.303 30.2029L216.751 29.6055ZM209.421 14.6888L215.073 14.7293L215.084 13.1635L209.432 13.123L209.421 14.6888ZM214.342 14.2126L218.084 24.5675L219.557 24.0352L215.815 13.6802L214.342 14.2126ZM219.553 24.5762L223.417 14.2757L221.951 13.726L218.087 24.0265L219.553 24.5762ZM222.678 14.7837L228.153 14.8229L228.164 13.2571L222.689 13.218L222.678 14.7837ZM79.7905 44.7172L80.5734 44.7228L80.5791 43.9399L79.7962 43.9343L79.7905 44.7172ZM79.7609 48.7713L79.7551 49.5542L80.538 49.5598L80.5438 48.7769L79.7609 48.7713ZM74.2567 48.7319L74.2624 47.949L73.4796 47.9434L73.4738 48.7263L74.2567 48.7319ZM74.1345 65.4514L74.1287 66.2343L74.9116 66.2399L74.9174 65.457L74.1345 65.4514ZM69.0742 65.4152L68.2913 65.4096L68.2856 66.1925L69.0685 66.1981L69.0742 65.4152ZM69.1965 48.6957L69.9794 48.7013L69.9851 47.9184L69.2022 47.9128L69.1965 48.6957ZM63.6923 48.6563L62.9094 48.6507L62.9037 49.4336L63.6866 49.4392L63.6923 48.6563ZM63.722 44.6022L63.7277 43.8193L62.9448 43.8137L62.9391 44.5966L63.722 44.6022ZM79.0076 44.7116L78.978 48.7657L80.5438 48.7769L80.5734 44.7228L79.0076 44.7116ZM79.7666 47.9884L74.2624 47.949L74.251 49.5148L79.7551 49.5542L79.7666 47.9884ZM73.4738 48.7263L73.3516 65.4458L74.9174 65.457L75.0396 48.7375L73.4738 48.7263ZM74.1402 64.6685L69.0799 64.6323L69.0685 66.1981L74.1287 66.2343L74.1402 64.6685ZM69.8571 65.4208L69.9794 48.7013L68.4136 48.6901L68.2913 65.4096L69.8571 65.4208ZM69.2022 47.9128L63.6981 47.8734L63.6866 49.4392L69.1907 49.4786L69.2022 47.9128ZM64.4752 48.6619L64.5049 44.6078L62.9391 44.5966L62.9094 48.6507L64.4752 48.6619ZM63.7163 45.3851L79.7848 45.5001L79.7962 43.9343L63.7277 43.8193L63.7163 45.3851ZM99.1664 49.1174L99.8847 49.429L100.356 48.343L99.1722 48.3345L99.1664 49.1174ZM88.6311 73.3975L88.6254 74.1804L89.1432 74.1841L89.3493 73.7091L88.6311 73.3975ZM83.1862 73.3586L82.4748 73.0318L81.9688 74.1328L83.1804 74.1415L83.1862 73.3586ZM87.0354 64.9815L87.7468 65.3083L87.8893 64.9982L87.7591 64.6828L87.0354 64.9815ZM80.4346 48.9833L80.4404 48.2004L79.2612 48.192L79.7109 49.282L80.4346 48.9833ZM86.0867 49.0238L86.8231 48.7576L86.6377 48.2448L86.0925 48.2409L86.0867 49.0238ZM89.8286 59.3787L89.0923 59.6449L89.8149 61.6446L90.5616 59.6536L89.8286 59.3787ZM93.6919 49.0782L93.6976 48.2953L93.1509 48.2914L92.9589 48.8034L93.6919 49.0782ZM98.4482 48.8059L87.9129 73.086L89.3493 73.7091L99.8847 49.429L98.4482 48.8059ZM88.6368 72.6147L83.1919 72.5757L83.1804 74.1415L88.6254 74.1804L88.6368 72.6147ZM83.8976 73.6854L87.7468 65.3083L86.324 64.6547L82.4748 73.0318L83.8976 73.6854ZM87.7591 64.6828L81.1584 48.6846L79.7109 49.282L86.3117 65.2802L87.7591 64.6828ZM80.4289 49.7662L86.081 49.8067L86.0925 48.2409L80.4404 48.2004L80.4289 49.7662ZM85.3504 49.2899L89.0923 59.6449L90.5649 59.1126L86.8231 48.7576L85.3504 49.2899ZM90.5616 59.6536L94.425 49.3531L92.9589 48.8034L89.0955 59.1039L90.5616 59.6536ZM93.6862 49.8611L99.1607 49.9003L99.1722 48.3345L93.6976 48.2953L93.6862 49.8611ZM100.998 52.8889L100.316 52.5047L100.312 52.5128L100.998 52.8889ZM103.95 49.9507L103.579 49.2611L103.574 49.2636L103.95 49.9507ZM113.444 50.6105L112.956 51.2227L112.96 51.226L113.444 50.6105ZM116.163 55.217L116.157 55.9999L117.131 56.0069L116.929 55.0543L116.163 55.217ZM110.777 55.1785L110.038 55.438L110.221 55.9574L110.771 55.9614L110.777 55.1785ZM105.93 54.3447L106.544 54.8298L106.551 54.8216L105.93 54.3447ZM105.885 60.5295L105.257 60.9975L105.263 61.0057L105.885 60.5295ZM110.744 59.7356L110.75 58.9527L110.199 58.9488L110.009 59.4656L110.744 59.7356ZM116.13 59.7742L116.892 59.9512L117.113 58.9983L116.135 58.9913L116.13 59.7742ZM113.344 64.3117L112.864 63.6935L113.344 64.3117ZM103.841 64.8651L103.455 65.5468L103.46 65.5493L103.841 64.8651ZM100.933 61.8849L100.241 62.2512L100.245 62.2593L100.933 61.8849ZM100.713 57.3851C100.724 55.7752 101.058 54.4101 101.685 53.265L100.312 52.5128C99.5394 53.9225 99.1602 55.5511 99.1469 57.3739L100.713 57.3851ZM101.681 53.2731C102.331 52.1194 103.21 51.2469 104.325 50.6378L103.574 49.2636C102.194 50.0177 101.105 51.104 100.316 52.5047L101.681 53.2731ZM104.32 50.6403C105.459 50.0284 106.769 49.718 108.272 49.7288L108.283 48.163C106.551 48.1506 104.976 48.5101 103.579 49.2611L104.32 50.6403ZM108.272 49.7288C110.201 49.7426 111.744 50.2559 112.956 51.2227L113.933 49.9984C112.399 48.7753 110.498 48.1789 108.283 48.163L108.272 49.7288ZM112.96 51.226C114.189 52.1921 115.01 53.5565 115.397 55.3798L116.929 55.0543C116.477 52.9257 115.485 51.2191 113.928 49.9951L112.96 51.226ZM116.169 54.4341L110.783 54.3956L110.771 55.9614L116.157 55.9999L116.169 54.4341ZM111.516 54.919C111.254 54.1728 110.843 53.5511 110.251 53.1185C109.656 52.6846 108.944 52.4884 108.163 52.4828L108.152 54.0486C108.673 54.0523 109.048 54.1796 109.327 54.3832C109.608 54.5883 109.856 54.9182 110.038 55.438L111.516 54.919ZM108.163 52.4828C106.994 52.4744 106.018 52.9444 105.309 53.8678L106.551 54.8216C106.957 54.2931 107.466 54.0437 108.152 54.0486L108.163 52.4828ZM105.315 53.8597C104.608 54.7553 104.306 55.977 104.296 57.4108L105.862 57.422C105.871 56.1728 106.136 55.3467 106.544 54.8298L105.315 53.8597ZM104.296 57.4108C104.285 58.8466 104.57 60.0762 105.257 60.9974L106.512 60.0615C106.105 59.5149 105.853 58.6692 105.862 57.422L104.296 57.4108ZM105.263 61.0057C105.962 61.9184 106.93 62.3853 108.091 62.3936L108.102 60.8278C107.408 60.8228 106.901 60.5689 106.506 60.0532L105.263 61.0057ZM108.091 62.3936C108.871 62.3992 109.587 62.2131 110.187 61.7878C110.786 61.3638 111.206 60.748 111.479 60.0057L110.009 59.4656C109.819 59.9827 109.566 60.309 109.282 60.51C109 60.7097 108.623 60.8315 108.102 60.8278L108.091 62.3936ZM110.738 60.5185L116.124 60.5571L116.135 58.9913L110.75 58.9527L110.738 60.5185ZM115.367 59.5973C114.955 61.373 114.115 62.7214 112.864 63.6935L113.825 64.9299C115.391 63.7125 116.408 62.0359 116.892 59.9512L115.367 59.5973ZM112.864 63.6935C111.614 64.6644 110.063 65.1625 108.159 65.1489L108.148 66.7147C110.348 66.7304 112.256 66.1484 113.825 64.9299L112.864 63.6935ZM108.159 65.1489C106.656 65.1381 105.35 64.809 104.221 64.1809L103.46 65.5493C104.846 66.3202 106.415 66.7023 108.148 66.7147L108.159 65.1489ZM104.226 64.1835C103.12 63.5585 102.253 62.6734 101.62 61.5105L100.245 62.2593C101.014 63.6712 102.086 64.773 103.455 65.5468L104.226 64.1835ZM101.625 61.5187C101.014 60.3648 100.701 58.995 100.713 57.3851L99.1469 57.3739C99.1336 59.1967 99.4889 60.8305 100.241 62.2512L101.625 61.5187ZM121.935 64.9947L121.559 65.6813L121.563 65.6837L121.935 64.9947ZM118.909 62.0136L118.226 62.3961L118.23 62.4039L118.909 62.0136ZM119.004 53.0474L119.677 53.4474L119.68 53.4429L119.004 53.0474ZM122.103 50.0807L122.465 50.775L122.465 50.775L122.103 50.0807ZM130.863 50.1434L130.491 50.8324L130.491 50.8324L130.863 50.1434ZM133.918 53.1542L133.237 53.54L133.24 53.5445L133.918 53.1542ZM133.823 62.1204L133.152 61.7173L133.15 61.7204L133.823 62.1204ZM130.695 65.0574L130.337 64.3608L130.333 64.3631L130.695 65.0574ZM128.803 60.6344L128.246 60.0846L128.238 60.0927L128.803 60.6344ZM128.877 54.5386L128.296 55.0636L128.304 55.0721L128.877 54.5386ZM123.995 54.5037L124.561 55.0449L124.568 55.0368L123.995 54.5037ZM123.921 60.5994L123.332 61.1154L123.34 61.1243L123.921 60.5994ZM126.313 65.2788C124.81 65.2681 123.481 64.9389 122.307 64.3056L121.563 65.6837C122.984 66.45 124.569 66.8322 126.302 66.8446L126.313 65.2788ZM122.311 64.308C121.163 63.6789 120.258 62.7889 119.588 61.6233L118.23 62.4039C119.041 63.8137 120.153 64.9111 121.559 65.6813L122.311 64.308ZM119.592 61.6312C118.948 60.4803 118.618 59.1163 118.63 57.5134L117.064 57.5022C117.051 59.332 117.429 60.9719 118.226 62.396L119.592 61.6312ZM118.63 57.5134C118.641 55.9356 118.999 54.5888 119.677 53.4474L118.331 52.6475C117.491 54.06 117.077 55.6868 117.064 57.5022L118.63 57.5134ZM119.68 53.4429C120.366 52.2708 121.291 51.3866 122.465 50.775L121.742 49.3864C120.301 50.137 119.161 51.2307 118.328 52.6519L119.68 53.4429ZM122.465 50.775C123.648 50.1585 124.982 49.8484 126.485 49.8592L126.496 48.2934C124.764 48.281 123.173 48.6405 121.742 49.3864L122.465 50.775ZM126.485 49.8592C127.988 49.87 129.317 50.1991 130.491 50.8324L131.235 49.4544C129.814 48.6881 128.229 48.3058 126.496 48.2934L126.485 49.8592ZM130.491 50.8324C131.656 51.4608 132.568 52.3581 133.237 53.54L134.6 52.7684C133.789 51.3355 132.664 50.2255 131.235 49.4544L130.491 50.8324ZM133.24 53.5445C133.901 54.6955 134.239 56.0472 134.227 57.6251L135.793 57.6363C135.806 55.8209 135.416 54.1883 134.597 52.7639L133.24 53.5445ZM134.227 57.6251C134.216 59.199 133.85 60.555 133.152 61.7173L134.494 62.5235C135.354 61.0927 135.78 59.4555 135.793 57.6363L134.227 57.6251ZM133.15 61.7204C132.467 62.8703 131.534 63.7468 130.337 64.3609L131.052 65.7539C132.509 65.0059 133.662 63.9244 134.496 62.5204L133.15 61.7204ZM130.333 64.3631C129.15 64.9795 127.816 65.2896 126.313 65.2788L126.302 66.8446C128.034 66.857 129.625 66.4975 131.056 65.7517L130.333 64.3631ZM126.334 62.465C127.518 62.4735 128.545 62.0351 129.369 61.176L128.238 60.0927C127.709 60.6445 127.094 60.9046 126.345 60.8992L126.334 62.465ZM129.361 61.1841C130.242 60.2905 130.634 59.0549 130.644 57.5994L129.078 57.5882C129.07 58.7763 128.756 59.5677 128.246 60.0846L129.361 61.1841ZM130.644 57.5994C130.655 56.1496 130.294 54.9118 129.451 54.0051L128.304 55.0721C128.792 55.5955 129.087 56.3944 129.078 57.5882L130.644 57.5994ZM129.458 54.0137C128.665 53.1354 127.65 52.6815 126.464 52.673L126.453 54.2388C127.201 54.2442 127.798 54.5121 128.296 55.0635L129.458 54.0137ZM126.464 52.673C125.264 52.6644 124.231 53.1 123.422 53.9705L124.568 55.0368C125.071 54.4963 125.68 54.2333 126.453 54.2388L126.464 52.673ZM123.429 53.9625C122.587 54.843 122.224 56.0806 122.213 57.5391L123.779 57.5503C123.788 56.3256 124.091 55.536 124.56 55.0448L123.429 53.9625ZM122.213 57.5391C122.202 58.9776 122.537 60.2085 123.332 61.1154L124.51 60.0835C124.052 59.5608 123.77 58.7553 123.779 57.5503L122.213 57.5391ZM123.34 61.1243C124.133 62.0026 125.148 62.4565 126.334 62.465L126.345 60.8992C125.597 60.8939 125 60.6259 124.502 60.0745L123.34 61.1243ZM140.777 65.1296L140.401 65.8162L140.405 65.8186L140.777 65.1296ZM137.751 62.1485L137.067 62.531L137.072 62.5388L137.751 62.1485ZM137.846 53.1823L138.519 53.5823L138.522 53.5778L137.846 53.1823ZM140.945 50.2156L141.307 50.9099L141.307 50.9099L140.945 50.2156ZM149.705 50.2783L149.333 50.9673L149.333 50.9673L149.705 50.2783ZM152.76 53.2891L152.079 53.6749L152.082 53.6794L152.76 53.2891ZM152.665 62.2553L151.994 61.8522L151.992 61.8553L152.665 62.2553ZM149.536 65.1923L149.179 64.4957L149.175 64.498L149.536 65.1923ZM147.645 60.7693L147.088 60.2195L147.08 60.2276L147.645 60.7693ZM147.719 54.6735L147.138 55.1985L147.146 55.207L147.719 54.6735ZM142.837 54.6386L143.402 55.1798L143.41 55.1717L142.837 54.6386ZM142.762 60.7343L142.173 61.2503L142.181 61.2592L142.762 60.7343ZM145.155 65.4137C143.652 65.403 142.323 65.0738 141.149 64.4405L140.405 65.8186C141.825 66.5849 143.411 66.9671 145.143 66.9795L145.155 65.4137ZM141.153 64.4429C140.005 63.8138 139.1 62.9238 138.43 61.7582L137.072 62.5388C137.882 63.9486 138.995 65.046 140.401 65.8162L141.153 64.4429ZM138.434 61.7661C137.79 60.6152 137.46 59.2512 137.472 57.6483L135.906 57.6371C135.892 59.4669 136.271 61.1068 137.068 62.531L138.434 61.7661ZM137.472 57.6483C137.483 56.0705 137.84 54.7237 138.519 53.5823L137.173 52.7824C136.333 54.1949 135.919 55.8217 135.906 57.6371L137.472 57.6483ZM138.522 53.5778C139.208 52.4057 140.133 51.5215 141.307 50.9099L140.584 49.5213C139.143 50.2719 138.002 51.3656 137.17 52.7868L138.522 53.5778ZM141.307 50.9099C142.49 50.2934 143.824 49.9833 145.327 49.9941L145.338 48.4283C143.605 48.4159 142.015 48.7754 140.584 49.5213L141.307 50.9099ZM145.327 49.9941C146.829 50.0049 148.159 50.334 149.333 50.9673L150.076 49.5893C148.656 48.823 147.071 48.4407 145.338 48.4283L145.327 49.9941ZM149.333 50.9673C150.497 51.5958 151.41 52.493 152.079 53.6749L153.442 52.9033C152.63 51.4704 151.506 50.3604 150.076 49.5893L149.333 50.9673ZM152.082 53.6794C152.743 54.8304 153.081 56.1821 153.069 57.76L154.635 57.7712C154.648 55.9558 154.258 54.3232 153.439 52.8988L152.082 53.6794ZM153.069 57.76C153.058 59.3339 152.692 60.6899 151.994 61.8522L153.336 62.6584C154.196 61.2276 154.622 59.5904 154.635 57.7712L153.069 57.76ZM151.992 61.8553C151.309 63.0052 150.375 63.8817 149.179 64.4958L149.894 65.8888C151.351 65.1408 152.504 64.0593 153.338 62.6553L151.992 61.8553ZM149.175 64.498C147.992 65.1144 146.657 65.4245 145.155 65.4137L145.143 66.9795C146.876 66.9919 148.467 66.6324 149.898 65.8866L149.175 64.498ZM145.175 62.5999C146.36 62.6084 147.387 62.17 148.21 61.3109L147.08 60.2276C146.551 60.7794 145.936 61.0395 145.187 61.0341L145.175 62.5999ZM148.202 61.319C149.084 60.4254 149.475 59.1898 149.486 57.7343L147.92 57.7231C147.912 58.9112 147.598 59.7026 147.088 60.2195L148.202 61.319ZM149.486 57.7343C149.497 56.2845 149.136 55.0467 148.292 54.14L147.146 55.207C147.633 55.7304 147.929 56.5293 147.92 57.7231L149.486 57.7343ZM148.3 54.1486C147.507 53.2703 146.492 52.8164 145.306 52.8079L145.295 54.3737C146.043 54.3791 146.64 54.647 147.138 55.1984L148.3 54.1486ZM145.306 52.8079C144.106 52.7994 143.073 53.2349 142.263 54.1054L143.41 55.1717C143.913 54.6312 144.522 54.3682 145.295 54.3737L145.306 52.8079ZM142.271 54.0974C141.429 54.9779 141.066 56.2155 141.055 57.674L142.621 57.6852C142.63 56.4606 142.932 55.6709 143.402 55.1797L142.271 54.0974ZM141.055 57.674C141.044 59.1125 141.379 60.3434 142.173 61.2503L143.351 60.2184C142.894 59.6957 142.612 58.8902 142.621 57.6852L141.055 57.674ZM142.181 61.2592C142.975 62.1375 143.99 62.5914 145.175 62.5999L145.187 61.0341C144.439 61.0288 143.842 60.7609 143.343 60.2094L142.181 61.2592ZM171.262 51.35L170.678 51.8717L170.687 51.8811L171.262 51.35ZM172.9 66.1586L172.894 66.9415L173.677 66.9471L173.683 66.1642L172.9 66.1586ZM167.869 66.1226L167.086 66.117L167.081 66.8998L167.864 66.9054L167.869 66.1226ZM167.096 54.5755L166.52 55.1063L167.096 54.5755ZM162.479 54.5425L163.047 55.0814L162.479 54.5425ZM161.537 66.0772L161.531 66.8601L162.314 66.8657L162.319 66.0828L161.537 66.0772ZM156.476 66.041L155.693 66.0354L155.688 66.8183L156.471 66.8239L156.476 66.041ZM156.597 49.5286L156.603 48.7457L155.82 48.7401L155.814 49.523L156.597 49.5286ZM161.657 49.5648L162.44 49.5704L162.446 48.7875L161.663 48.7819L161.657 49.5648ZM161.641 51.7547L160.858 51.749L160.84 54.2249L162.279 52.2094L161.641 51.7547ZM163.725 50.0531L164.057 50.7621L164.064 50.7591L164.07 50.7559L163.725 50.0531ZM166.654 50.206C168.399 50.2185 169.711 50.7887 170.678 51.8716L171.846 50.8285C170.543 49.3698 168.787 48.6554 166.665 48.6402L166.654 50.206ZM170.687 51.8811C171.672 52.9481 172.203 54.456 172.188 56.506L173.753 56.5172C173.77 54.1875 173.162 52.2544 171.838 50.819L170.687 51.8811ZM172.188 56.506L172.117 66.153L173.683 66.1642L173.753 56.5172L172.188 56.506ZM172.906 65.3757L167.875 65.3397L167.864 66.9054L172.894 66.9415L172.906 65.3757ZM168.652 66.1282L168.718 57.1618L167.152 57.1506L167.086 66.117L168.652 66.1282ZM168.718 57.1618C168.727 55.9235 168.412 54.8481 167.671 54.0448L166.52 55.1063C166.914 55.5342 167.159 56.1793 167.152 57.1506L168.718 57.1618ZM167.671 54.0448C166.934 53.2447 165.947 52.8669 164.8 52.8587L164.788 54.4245C165.575 54.4301 166.122 54.6749 166.52 55.1063L167.671 54.0448ZM164.8 52.8587C163.653 52.8505 162.661 53.2141 161.911 54.0035L163.047 55.0814C163.451 54.6558 164.002 54.4189 164.788 54.4245L164.8 52.8587ZM161.911 54.0035C161.159 54.7962 160.828 55.8669 160.819 57.1052L162.385 57.1164C162.392 56.1452 162.646 55.5037 163.047 55.0814L161.911 54.0035ZM160.819 57.1052L160.754 66.0716L162.319 66.0828L162.385 57.1164L160.819 57.1052ZM161.542 65.2943L156.482 65.2581L156.471 66.8239L161.531 66.8601L161.542 65.2943ZM157.259 66.0466L157.38 49.5342L155.814 49.523L155.693 66.0354L157.259 66.0466ZM156.591 50.3115L161.652 50.3477L161.663 48.7819L156.603 48.7457L156.591 50.3115ZM160.874 49.5592L160.858 51.749L162.424 51.7603L162.44 49.5704L160.874 49.5592ZM162.279 52.2094C162.713 51.6012 163.298 51.1177 164.057 50.7621L163.393 49.3442C162.41 49.8048 161.607 50.4556 161.004 51.2999L162.279 52.2094ZM164.07 50.7559C164.82 50.3877 165.676 50.199 166.654 50.206L166.665 48.6402C165.473 48.6317 164.373 48.863 163.38 49.3504L164.07 50.7559Z" fill="#40BEFD" mask="url(#path-1-outside-1_242_158)"/>
</g>
<defs>
<filter id="filter0_d_242_158" x="11.4497" y="7.10587" width="216.748" height="68.406" filterUnits="userSpaceOnUse" color-interpolation-filters="sRGB">
<feFlood flood-opacity="0" result="BackgroundImageFix"/>
<feColorMatrix in="SourceAlpha" type="matrix" values="0 0 0 0 0 0 0 0 0 0 0 0 0 0 0 0 0 0 127 0" result="hardAlpha"/>
<feOffset dy="1.11845"/>
<feComposite in2="hardAlpha" operator="out"/>
<feColorMatrix type="matrix" values="0 0 0 0 1 0 0 0 0 1 0 0 0 0 1 0 0 0 1 0"/>
<feBlend mode="normal" in2="BackgroundImageFix" result="effect1_dropShadow_242_158"/>
<feBlend mode="normal" in="SourceGraphic" in2="effect1_dropShadow_242_158" result="shape"/>
</filter>
</defs>
</svg>
