<svg width="425" height="23" viewBox="0 0 425 23" fill="none" xmlns="http://www.w3.org/2000/svg">
<path d="M409.5 11.3346C412.2 8.03457 414.7 4.03457 417.8 0.934566H425C420.1 3.03457 416.6 9.53457 412.8 14.1346C412.267 14.6679 411.767 15.2012 411.3 15.7346L410.5 16.5346C406.1 20.8346 401.2 22.4346 394.4 22.4346H352.3H134L0 18.1346H394.4C401.1 18.1346 405.2 16.5346 409.5 11.3346Z" fill="#D9D9D9"/>
<path d="M409.5 11.3346C412.2 8.03457 414.7 4.03457 417.8 0.934566H425C420.1 3.03457 416.6 9.53457 412.8 14.1346C412.267 14.6679 411.767 15.2012 411.3 15.7346L410.5 16.5346C406.1 20.8346 401.2 22.4346 394.4 22.4346H352.3H134L0 18.1346H394.4C401.1 18.1346 405.2 16.5346 409.5 11.3346Z" fill="url(#paint0_linear_198_185)"/>
<defs>
<linearGradient id="paint0_linear_198_185" x1="424.908" y1="22.5398" x2="133.995" y2="22.5398" gradientUnits="userSpaceOnUse">
<stop stop-color="#9E0000"/>
<stop offset="1" stop-color="#FF1212"/>
</linearGradient>
</defs>
</svg>
