<svg width="421" height="22" viewBox="0 0 421 22" fill="none" xmlns="http://www.w3.org/2000/svg">
<path d="M15.5 11.5346C12.8 14.8346 10.3 18.8346 7.2 21.9346H0C4.9 19.8346 8.4 13.3346 12.2 8.73457C12.7333 8.20124 13.2333 7.6679 13.7 7.13457L14.5 6.33457C18.9 2.03457 23.8 0.43457 30.6 0.43457H72.7H291L421 4.73457H30.6C23.9 4.73457 19.8 6.33457 15.5 11.5346Z" fill="#D9D9D9"/>
<path d="M15.5 11.5346C12.8 14.8346 10.3 18.8346 7.2 21.9346H0C4.9 19.8346 8.4 13.3346 12.2 8.73457C12.7333 8.20124 13.2333 7.6679 13.7 7.13457L14.5 6.33457C18.9 2.03457 23.8 0.43457 30.6 0.43457H72.7H291L421 4.73457H30.6C23.9 4.73457 19.8 6.33457 15.5 11.5346Z" fill="url(#paint0_linear_198_184)"/>
<defs>
<linearGradient id="paint0_linear_198_184" x1="0.0918947" y1="0.329371" x2="291.005" y2="0.329371" gradientUnits="userSpaceOnUse">
<stop stop-color="#9E0000"/>
<stop offset="1" stop-color="#FF1212"/>
</linearGradient>
</defs>
</svg>
