<svg width="421" height="23" viewBox="0 0 421 23" fill="none" xmlns="http://www.w3.org/2000/svg">
<path d="M15.5 11.856C12.8 15.156 10.3 19.156 7.2 22.256H0C4.9 20.156 8.4 13.656 12.2 9.05604C12.7333 8.52271 13.2333 7.98938 13.7 7.45604L14.5 6.65604C18.9 2.35604 23.8 0.756042 30.6 0.756042H72.7H291L421 5.05604H30.6C23.9 5.05604 19.8 6.65604 15.5 11.856Z" fill="#D9D9D9"/>
<path d="M15.5 11.856C12.8 15.156 10.3 19.156 7.2 22.256H0C4.9 20.156 8.4 13.656 12.2 9.05604C12.7333 8.52271 13.2333 7.98938 13.7 7.45604L14.5 6.65604C18.9 2.35604 23.8 0.756042 30.6 0.756042H72.7H291L421 5.05604H30.6C23.9 5.05604 19.8 6.65604 15.5 11.856Z" fill="url(#paint0_linear_198_111)"/>
<defs>
<linearGradient id="paint0_linear_198_111" x1="0.0918947" y1="0.650843" x2="291.005" y2="0.650843" gradientUnits="userSpaceOnUse">
<stop stop-color="#9E0000"/>
<stop offset="1" stop-color="#FF1212"/>
</linearGradient>
</defs>
</svg>
