<svg width="74" height="16" viewBox="0 0 74 16" fill="none" xmlns="http://www.w3.org/2000/svg">
<path d="M4.74555 15.6029C6.50575 13.492 7.89091 10.7991 9.41024 8.56433C11.8312 5.04198 14.2165 3.90128 18.1742 3.76403L73.724 3.76404L30.724 1.26436L18.0757 0.924154C14.0589 1.06346 11.2011 2.22054 8.70043 5.15055L8.24619 5.69529C7.98274 6.05708 7.6996 6.41955 7.39677 6.78271C5.25743 9.89856 3.33882 14.2631 0.492438 15.7504L4.74555 15.6029Z" fill="#D9D9D9"/>
<path d="M4.74555 15.6029C6.50575 13.492 7.89091 10.7991 9.41024 8.56433C11.8312 5.04198 14.2165 3.90128 18.1742 3.76403L73.724 3.76404L30.724 1.26436L18.0757 0.924154C14.0589 1.06346 11.2011 2.22054 8.70043 5.15055L8.24619 5.69529C7.98274 6.05708 7.6996 6.41955 7.39677 6.78271C5.25743 9.89856 3.33882 14.2631 0.492438 15.7504L4.74555 15.6029Z" fill="url(#paint0_linear_198_96)"/>
<defs>
<linearGradient id="paint0_linear_198_96" x1="0.0136467" y1="1.48099" x2="50.8431" y2="-0.28179" gradientUnits="userSpaceOnUse">
<stop stop-color="#9E0000"/>
<stop offset="1" stop-color="#FF1212"/>
</linearGradient>
</defs>
</svg>
